<svg xmlns="http://www.w3.org/2000/svg" width="1341.09" height="1534.73" viewBox="0 0 1341.09 1534.73">
  <title>background-1</title>
  <g>
    <path d="M748.17,1325.74a1.84,1.84,0,0,1-1.33-.55L641.32,1219.37a1.87,1.87,0,0,1,.57-3l188.25-83a1.87,1.87,0,0,1,2.47,2.47l-82.73,188.78a1.84,1.84,0,0,1-1.37,1.09A2,2,0,0,1,748.17,1325.74ZM645.9,1218.66,747.55,1320.6l79.69-181.85Z" transform="translate(-159.28 0)" style="fill: #82d1e1"/>
    <path d="M642.64,1219.92a1.88,1.88,0,0,1-1.32-.55L535.79,1113.54a1.88,1.88,0,0,1,.58-3l188.24-83a1.87,1.87,0,0,1,2.47,2.46l-82.72,188.78a1.86,1.86,0,0,1-1.37,1.09A1.39,1.39,0,0,1,642.64,1219.92ZM540.38,1112.83,642,1214.77l79.69-181.85Z" transform="translate(-159.28 0)" style="fill: #82d1e1"/>
    <path d="M702.57,736.52a1.88,1.88,0,0,1-1.72-2.63l82.72-188.78a1.88,1.88,0,0,1,3-.57L892.14,650.37a1.85,1.85,0,0,1,.51,1.67,1.87,1.87,0,0,1-1.08,1.37l-188.25,83A1.81,1.81,0,0,1,702.57,736.52ZM785.9,549.14,706.22,731l181.33-79.91Z" transform="translate(-159.28 0)" style="fill: #82d1e1"/>
    <path d="M619.84,925.3a1.88,1.88,0,0,1-1.72-2.63l82.73-188.78a1.87,1.87,0,0,1,3-.57L809.41,839.15a1.87,1.87,0,0,1-.57,3L620.59,925.14A1.81,1.81,0,0,1,619.84,925.3Zm83.34-187.38L623.49,919.77l181.34-79.91Z" transform="translate(-159.28 0)" style="fill: #82d1e1"/>
    <path d="M514.32,819.48a1.88,1.88,0,0,1-1.72-2.63l82.73-188.78A1.9,1.9,0,0,1,596.7,627a1.87,1.87,0,0,1,1.67.52L703.9,733.33a1.9,1.9,0,0,1,.51,1.67,1.86,1.86,0,0,1-1.09,1.37l-188.24,83A1.85,1.85,0,0,1,514.32,819.48ZM597.66,632.1,518,814,699.31,734Z" transform="translate(-159.28 0)" style="fill: #82d1e1"/>
    <path d="M222.67,798.72A1.86,1.86,0,0,1,221,796.1l82.72-188.78a1.88,1.88,0,0,1,3-.58L412.24,712.57a1.88,1.88,0,0,1-.57,3l-188.25,83A2,2,0,0,1,222.67,798.72ZM306,611.34,226.32,793.19l181.33-79.91Z" transform="translate(-159.28 0)" style="fill: #82d1e1"/>
    <path d="M492.06,525.41a1.87,1.87,0,0,1-1.32-.55,1.85,1.85,0,0,1-.39-2.08L573.07,334a1.87,1.87,0,0,1,3-.57L681.64,439.26a1.88,1.88,0,0,1-.58,3L492.82,525.25A1.82,1.82,0,0,1,492.06,525.41ZM575.4,338,495.71,519.88,677.05,440Z" transform="translate(-159.28 0)" style="fill: #82d1e1"/>
    <path d="M574.79,336.63a1.88,1.88,0,0,1-1.72-2.63l82.72-188.78a1.88,1.88,0,0,1,3.05-.57L764.36,250.48a1.87,1.87,0,0,1,.52,1.67,1.92,1.92,0,0,1-1.09,1.37l-188.25,83A1.81,1.81,0,0,1,574.79,336.63Zm83.33-187.38L578.44,331.1l181.33-79.91Z" transform="translate(-159.28 0)" style="fill: #82d1e1"/>
    <path d="M386.54,419.59a1.88,1.88,0,0,1-1.71-2.63l82.72-188.78a1.86,1.86,0,0,1,1.37-1.09,1.9,1.9,0,0,1,1.68.52L576.12,333.44a1.87,1.87,0,0,1,.51,1.67,1.89,1.89,0,0,1-1.08,1.37L387.3,419.43A1.82,1.82,0,0,1,386.54,419.59ZM469.88,232.2,390.19,414.06l181.34-79.91Z" transform="translate(-159.28 0)" style="fill: #82d1e1"/>
    <path d="M890.81,653.57a1.92,1.92,0,0,1-1.33-.55L784,547.19a1.88,1.88,0,0,1,.57-3L972.78,461.2a1.87,1.87,0,0,1,2.47,2.46L892.53,652.44a1.86,1.86,0,0,1-1.37,1.09A1.39,1.39,0,0,1,890.81,653.57ZM788.55,546.48,890.2,648.42l79.69-181.85Z" transform="translate(-159.28 0)" style="fill: #82d1e1"/>
    <path d="M830.89,1137a1.88,1.88,0,0,1-1.33-.55L724,1030.59a1.89,1.89,0,0,1-.51-1.68,1.85,1.85,0,0,1,1.08-1.36l188.25-83a1.87,1.87,0,0,1,2.47,2.47l-82.72,188.78a1.86,1.86,0,0,1-1.37,1.09A2.07,2.07,0,0,1,830.89,1137ZM728.63,1029.87l101.65,102L910,950Z" transform="translate(-159.28 0)" style="fill: #82d1e1"/>
    <path d="M1101.84,865.21a1.84,1.84,0,0,1-1.32-.55L889.48,653a1.93,1.93,0,0,1-.52-1.66A1.87,1.87,0,0,1,890,650l186.15-85.07a1.9,1.9,0,0,1,2.11.38l107.6,107.93a1.87,1.87,0,0,1,.34,2.2l-82.67,188.66a1.86,1.86,0,0,1-1.37,1.09A2,2,0,0,1,1101.84,865.21ZM894,652.28l207.19,207.79L1182.34,675,1076.55,568.88Z" transform="translate(-159.28 0)" style="fill: #82d1e1"/>
    <path d="M725.37,1031.13a1.84,1.84,0,0,1-1.32-.54,1.87,1.87,0,0,1-.4-2.08l82.73-188.78,1.71.75-1.71-.75L889.1,651a1.88,1.88,0,0,1,3-.57L997.67,756.2a1.89,1.89,0,0,1,.39,2.08L915.33,947.06a1.84,1.84,0,0,1-1,1l-188.24,83A2,2,0,0,1,725.37,1031.13ZM891.43,655,729,1025.6l183.17-80.72,81.92-186.94Z" transform="translate(-159.28 0)" style="fill: #82d1e1"/>
    <path d="M914.13,948.69a1.86,1.86,0,0,1-1.72-2.62l82.72-188.78a1.89,1.89,0,0,1,3-.58L1103.7,862.54a1.87,1.87,0,0,1-.57,3L914.88,948.53A1.81,1.81,0,0,1,914.13,948.69Zm83.34-187.38L917.78,943.16l181.34-79.91Z" transform="translate(-159.28 0)" style="fill: #82d1e1"/>
    <path d="M1101.85,865.21a1.88,1.88,0,0,1-1.72-2.63l82.73-188.78a1.84,1.84,0,0,1,1.37-1.09,1.88,1.88,0,0,1,1.67.52l105.52,105.82a1.87,1.87,0,0,1-.57,3l-188.25,83A1.81,1.81,0,0,1,1101.85,865.21Zm83.34-187.39L1105.5,859.68l181.34-79.92Z" transform="translate(-159.28 0)" style="fill: #82d1e1"/>
    <path d="M830.88,1137a1.88,1.88,0,0,1-1.71-2.63l83.25-188.26a1.89,1.89,0,0,1,1.15-1l187.53-83.39a1.87,1.87,0,0,1,2.47,2.47l-83.25,188.25a1.92,1.92,0,0,1-1.15,1l-187.53,83.4A1.82,1.82,0,0,1,830.88,1137Zm84.67-188.69-81,183.12,182.63-81.22,81-183.12Z" transform="translate(-159.28 0)" style="fill: #82d1e1"/>
    <g>
      <path d="M935.34,1241.71a1.88,1.88,0,0,1-1.72-2.64l83.25-188.25a1.88,1.88,0,0,1,1.15-1l187.53-83.41a1.88,1.88,0,0,1,2.48,2.48l-83.25,188.25a1.88,1.88,0,0,1-1.15,1l-187.53,83.4A1.9,1.9,0,0,1,935.34,1241.71ZM1020,1053l-81,183.12,182.63-81.22,81-183.12Z" transform="translate(-159.28 0)" style="fill: #82d1e1"/>
      <path d="M956.55,1534.73a1.84,1.84,0,0,1-1.32-.55L746.3,1324.65a1.87,1.87,0,0,1,.56-3l375.44-167a1.87,1.87,0,0,1,2.47,2.47l-166.5,376.5a1.89,1.89,0,0,1-1.37,1.08A2.07,2.07,0,0,1,956.55,1534.73Zm-205.67-210.8L956,1529.59l163.43-369.54Z" transform="translate(-159.28 0)" style="fill: #82d1e1"/>
    </g>
    <g>
      <path d="M597.05,630.7a1.88,1.88,0,0,1-1.72-2.64l83.25-188.25a1.88,1.88,0,0,1,1.15-1l187.53-83.41a1.88,1.88,0,0,1,2.48,2.48L786.49,546.11a1.89,1.89,0,0,1-1.15,1l-187.53,83.4A1.85,1.85,0,0,1,597.05,630.7ZM681.71,442l-81,183.12,182.63-81.22,81-183.12Z" transform="translate(-159.28 0)" style="fill: #82d1e1"/>
      <path d="M680.3,442.44a1.88,1.88,0,0,1-1.71-2.63l166.5-376.5a1.87,1.87,0,0,1,3-.57l208.94,209.54a1.87,1.87,0,0,1-.57,3l-375.44,167A1.82,1.82,0,0,1,680.3,442.44ZM847.41,67.33,684,436.88,1052.49,273Z" transform="translate(-159.28 0)" style="fill: #82d1e1"/>
    </g>
    <g>
      <path d="M1055.74,275.48a1.84,1.84,0,0,1-1.32-.55,1.89,1.89,0,0,1-.4-2.09l83.26-188.25a1.89,1.89,0,0,1,1.15-1L1326,.16a1.87,1.87,0,0,1,2.08.39,1.85,1.85,0,0,1,.39,2.08l-83.25,188.25a1.86,1.86,0,0,1-1.15,1l-187.53,83.4A1.83,1.83,0,0,1,1055.74,275.48Zm84.67-188.69-81,183.12,182.63-81.22L1323,5.56Z" transform="translate(-159.28 0)" style="fill: #82d1e1"/>
      <path d="M1077,568.5a1.84,1.84,0,0,1-1.33-.55L866.7,358.42a1.88,1.88,0,0,1-.52-1.67,1.9,1.9,0,0,1,1.09-1.37l375.43-167a1.88,1.88,0,0,1,2.48,2.48l-166.51,376.5a1.87,1.87,0,0,1-1.37,1.08A2,2,0,0,1,1077,568.5ZM871.28,357.7l205.07,205.66,163.43-369.54Z" transform="translate(-159.28 0)" style="fill: #82d1e1"/>
    </g>
    <g>
      <path d="M161.15,1280.52a1.88,1.88,0,0,1-1.71-2.63l83.25-188.25a1.86,1.86,0,0,1,1.15-1l187.53-83.4a1.87,1.87,0,0,1,2.47,2.47l-83.25,188.25a1.89,1.89,0,0,1-1.15,1l-187.53,83.4A1.82,1.82,0,0,1,161.15,1280.52Zm84.67-188.69-81,183.13,182.63-81.23,81-183.12Z" transform="translate(-159.28 0)" style="fill: #82d1e1"/>
      <path d="M244.4,1092.27a1.88,1.88,0,0,1-1.71-2.63l166.5-376.5a1.9,1.9,0,0,1,1.37-1.09,1.87,1.87,0,0,1,1.67.52L621.17,922.1a1.9,1.9,0,0,1,.51,1.67,1.87,1.87,0,0,1-1.08,1.37l-375.43,167A1.9,1.9,0,0,1,244.4,1092.27ZM411.51,717.16,248.09,1086.71l368.5-163.89Z" transform="translate(-159.28 0)" style="fill: #82d1e1"/>
    </g>
    <g>
      <path d="M1039.8,1346.47a1.87,1.87,0,0,1-1.32-.55,1.85,1.85,0,0,1-.39-2.08l83.25-188.25a1.86,1.86,0,0,1,1.15-1l187.53-83.4a1.87,1.87,0,0,1,2.47,2.47l-83.25,188.25a1.86,1.86,0,0,1-1.15,1l-187.53,83.4A1.82,1.82,0,0,1,1039.8,1346.47Zm84.67-188.69-81,183.13,182.63-81.22,81-183.13Z" transform="translate(-159.28 0)" style="fill: #82d1e1"/>
      <path d="M1123.06,1158.22a1.88,1.88,0,0,1-1.72-2.63l166.51-376.5a1.86,1.86,0,0,1,1.37-1.09,1.88,1.88,0,0,1,1.67.52l208.93,209.53a1.91,1.91,0,0,1,.52,1.67,1.88,1.88,0,0,1-1.09,1.37l-375.43,167A1.89,1.89,0,0,1,1123.06,1158.22Zm167.11-375.11-163.43,369.54,368.5-163.88Z" transform="translate(-159.28 0)" style="fill: #82d1e1"/>
    </g>
  </g>
</svg>
