<svg xmlns="http://www.w3.org/2000/svg" xmlns:xlink="http://www.w3.org/1999/xlink" width="1659.57" height="1274.07" viewBox="0 0 1659.57 1274.07">
  <defs>
    <linearGradient id="a" y1="767.36" x2="1659.57" y2="767.36" gradientUnits="userSpaceOnUse">
      <stop offset="0" stop-color="#fff"/>
      <stop offset="1"/>
    </linearGradient>
  </defs>
  <title>background-2</title>
  <g>
    <path d="M1083.1,1404.4q-12,0-23.89-.67C957,1398,849.76,1360.12,740.46,1291.11c-25.4-16-50.49-35-74.76-53.39C603.91,1191,540,1142.59,461.19,1134.11c-27.17-2.93-57.27-2.29-86.37-1.67-49.35,1-100.38,2.13-139.63-14-21.24-8.72-37.39-21.62-49.36-39.43-13.39-19.93-21.22-45.43-23.92-78-1.24-14.91-1.46-30.2-1.68-45-.45-30.24-.92-61.51-10.11-90.6a135.7,135.7,0,0,0-30-50.69v0c-10.78-11.88-22.49-22.26-33.81-32.3C65,763.63,45,745.83,30.42,718.88A266.29,266.29,0,0,1,.72,575.69c3.86-58,18.18-114.82,41.42-164.48,25.51-54.52,60.64-99.15,104.41-132.65,29.8-22.81,65.36-40.36,105.7-52.18,36.61-10.73,77.11-16.46,117.12-16.57,20.18-.06,40.4,1.7,60,3.4,26,2.26,52.89,4.6,80,2.71a1019.48,1019.48,0,0,0,147.8-22.85c30-6.62,61.21-15.13,91.35-23.37,81.06-22.14,164.88-45,247.1-38.11,53.66,4.53,109.61,16.54,166.32,35.72,50.31,17,102.72,40.18,155.76,68.86,57.12,30.88,101.71,57.86,140.31,84.9,50.6,35.44,90.71,70.82,122.61,108.16,68.44,80.09,93.57,172.15,70.77,259.25-15.8,60.33-45.21,116.29-73.66,170.41-16.29,31-33.14,63.05-47.2,95.5-15.79,36.48-28.67,74.87-41.11,112-14.12,42.11-28.72,85.67-47.68,126.68-31.83,68.9-86.62,125.23-158.43,162.89C1223.17,1387.5,1152.9,1404.4,1083.1,1404.4ZM411.84,1129.24a470.25,470.25,0,0,1,49.63,2.2c79.58,8.57,143.77,57.15,205.85,104.14,24.22,18.34,49.27,37.3,74.57,53.27,108.91,68.76,215.72,106.51,317.47,112.21,77,4.3,156.11-12.55,222.69-47.47,71.28-37.39,125.66-93.28,157.24-161.65,18.89-40.87,33.47-84.35,47.57-126.41,12.46-37.18,25.35-75.62,41.19-112.2,14.1-32.55,31-64.65,47.29-95.69,28.38-54,57.72-109.8,73.44-169.84,22.58-86.22-2.36-177.43-70.21-256.83-71-83.07-172.36-143.9-262.16-192.44-52.91-28.61-105.18-51.72-155.35-68.69-56.5-19.1-112.24-31.07-165.69-35.58-81.76-6.89-165.33,15.94-246.16,38-30.17,8.24-61.37,16.77-91.47,23.39a1021.39,1021.39,0,0,1-148.2,22.91c-27.33,1.91-54.33-.44-80.43-2.71-19.51-1.7-39.67-3.41-59.73-3.39-39.77.11-80,5.8-116.38,16.46-40,11.72-75.29,29.13-104.82,51.74-43.43,33.23-78.29,77.53-103.62,131.65C21.46,461.7,7.23,518.25,3.39,575.87A263.64,263.64,0,0,0,32.78,717.62C47.1,744.14,67,761.79,88.08,780.47c11.37,10.09,23.13,20.52,34,32.5a138.4,138.4,0,0,1,30.59,51.7c9.31,29.47,9.78,60.94,10.23,91.38.22,14.74.45,30,1.68,44.81,2.66,32.06,10.34,57.14,23.47,76.69,11.67,17.36,27.42,29.93,48.16,38.44,38.73,15.89,89.48,14.82,138.55,13.77C387,1129.5,399.5,1129.24,411.84,1129.24Z" transform="translate(0 -130.33)" style="fill: url(#a)"/>
    <path d="M1083.1,1404.4q-12,0-23.89-.67C957,1398,849.76,1360.12,740.46,1291.11c-25.4-16-50.49-35-74.76-53.39C603.91,1191,540,1142.59,461.19,1134.11c-27.17-2.93-57.27-2.29-86.37-1.67-49.35,1-100.38,2.13-139.63-14-21.24-8.72-37.39-21.62-49.36-39.43-13.39-19.93-21.22-45.43-23.92-78-1.24-14.91-1.46-30.2-1.68-45-.45-30.24-.92-61.51-10.11-90.6a135.7,135.7,0,0,0-30-50.69v0c-10.78-11.88-22.49-22.26-33.81-32.3C65,763.63,45,745.83,30.42,718.88A266.29,266.29,0,0,1,.72,575.69c3.86-58,18.18-114.82,41.42-164.48,25.51-54.52,60.64-99.15,104.41-132.65,29.8-22.81,65.36-40.36,105.7-52.18,36.61-10.73,77.11-16.46,117.12-16.57,20.18-.06,40.4,1.7,60,3.4,26,2.26,52.89,4.6,80,2.71a1019.48,1019.48,0,0,0,147.8-22.85c30-6.62,61.21-15.13,91.35-23.37,81.06-22.14,164.88-45,247.1-38.11,53.66,4.53,109.61,16.54,166.32,35.72,50.31,17,102.72,40.18,155.76,68.86,57.12,30.88,101.71,57.86,140.31,84.9,50.6,35.44,90.71,70.82,122.61,108.16,68.44,80.09,93.57,172.15,70.77,259.25-15.8,60.33-45.21,116.29-73.66,170.41-16.29,31-33.14,63.05-47.2,95.5-15.79,36.48-28.67,74.87-41.11,112-14.12,42.11-28.72,85.67-47.68,126.68-31.83,68.9-86.62,125.23-158.43,162.89C1223.17,1387.5,1152.9,1404.4,1083.1,1404.4ZM411.84,1129.24a470.25,470.25,0,0,1,49.63,2.2c79.58,8.57,143.77,57.15,205.85,104.14,24.22,18.34,49.27,37.3,74.57,53.27,108.91,68.76,215.72,106.51,317.47,112.21,77,4.3,156.11-12.55,222.69-47.47,71.28-37.39,125.66-93.28,157.24-161.65,18.89-40.87,33.47-84.35,47.57-126.41,12.46-37.18,25.35-75.62,41.19-112.2,14.1-32.55,31-64.65,47.29-95.69,28.38-54,57.72-109.8,73.44-169.84,22.58-86.22-2.36-177.43-70.21-256.83-71-83.07-172.36-143.9-262.16-192.44-52.91-28.61-105.18-51.72-155.35-68.69-56.5-19.1-112.24-31.07-165.69-35.58-81.76-6.89-165.33,15.94-246.16,38-30.17,8.24-61.37,16.77-91.47,23.39a1021.39,1021.39,0,0,1-148.2,22.91c-27.33,1.91-54.33-.44-80.43-2.71-19.51-1.7-39.67-3.41-59.73-3.39-39.77.11-80,5.8-116.38,16.46-40,11.72-75.29,29.13-104.82,51.74-43.43,33.23-78.29,77.53-103.62,131.65C21.46,461.7,7.23,518.25,3.39,575.87A263.64,263.64,0,0,0,32.78,717.62C47.1,744.14,67,761.79,88.08,780.47c11.37,10.09,23.13,20.52,34,32.5a138.4,138.4,0,0,1,30.59,51.7c9.31,29.47,9.78,60.94,10.23,91.38.22,14.74.45,30,1.68,44.81,2.66,32.06,10.34,57.14,23.47,76.69,11.67,17.36,27.42,29.93,48.16,38.44,38.73,15.89,89.48,14.82,138.55,13.77C387,1129.5,399.5,1129.24,411.84,1129.24Z" transform="translate(0 -130.33)" style="fill: #416cb4"/>
    <path d="M1062.85,1359.79q-11,0-22-.62c-94-5.32-192.69-40.55-293.27-104.72-23.36-14.91-46.44-32.57-68.76-49.65-56.85-43.49-115.63-88.47-188.17-96.37-25-2.72-52.68-2.12-79.46-1.55-45.4,1-92.35,2-128.46-13-19.55-8.11-34.41-20.1-45.42-36.67-12.32-18.53-19.51-42.25-22-72.49-1.14-13.88-1.35-28.12-1.55-41.88-.42-28.12-.85-57.18-9.32-84.21a126.2,126.2,0,0,0-27.54-47.18l0,0c-9.91-11-20.67-20.69-31.09-30-19.55-17.53-38-34.09-51.43-59.16A250,250,0,0,1,67,589.1c3.56-53.88,16.74-106.78,38.11-153,23.47-50.72,55.79-92.23,96.06-123.39,27.42-21.21,60.14-37.53,97.24-48.52A388.59,388.59,0,0,1,406.2,248.83c18.59,0,37.21,1.58,55.23,3.16,23.91,2.1,48.63,4.27,73.57,2.52a927,927,0,0,0,136-21.26c27.64-6.15,56.31-14.07,84-21.73,74.58-20.59,151.68-41.89,227.36-35.44,93.08,7.95,192.77,40.68,296.3,97.27,82.82,45.26,176.32,102,241.89,179.55,63,74.47,86.08,160.09,65.11,241.08-14.55,56.13-41.62,108.19-67.8,158.53-15,28.82-30.48,58.61-43.41,88.78-14.55,33.94-26.39,69.66-37.85,104.2-13,39.15-26.41,79.64-43.84,117.77-29.29,64.08-79.69,116.46-145.75,151.49C1191.69,1344.08,1127.06,1359.79,1062.85,1359.79Zm-617.6-255.87a425.73,425.73,0,0,1,45.66,2c73.23,8,132.29,53.16,189.4,96.87,22.28,17,45.32,34.67,68.59,49.52,100.22,63.94,198.49,99,292.08,104.34,70.85,4,143.62-11.66,204.87-44.14,65.57-34.77,115.6-86.75,144.66-150.33,17.37-38,30.78-78.43,43.74-117.52,11.47-34.59,23.34-70.36,37.92-104.4,13-30.25,28.48-60.09,43.49-88.94,26.12-50.22,53.13-102.15,67.6-158,20.76-80.19-2.18-165-64.6-238.86-65.31-77.25-158.57-133.82-241.19-179-103.22-56.43-202.59-89.06-295.33-97-75.22-6.41-152.12,14.82-226.48,35.36-27.75,7.67-56.45,15.6-84.14,21.76A930.07,930.07,0,0,1,535.18,257c-25.14,1.77-50-.41-74-2.52-18-1.58-36.52-3.22-55-3.15a385.8,385.8,0,0,0-107.06,15.3c-36.82,10.9-69.26,27.09-96.43,48.11-39.95,30.91-72,72.12-95.33,122.47C86.14,483.09,73,535.68,69.5,589.27a247.49,247.49,0,0,0,27,131.83c13.19,24.67,31.51,41.09,50.9,58.47,10.46,9.37,21.27,19.07,31.27,30.21a129,129,0,0,1,28.09,48.11c8.57,27.38,9,56.63,9.42,84.92.21,13.73.42,27.92,1.55,41.72,2.45,29.81,9.51,53.15,21.6,71.32,10.72,16.14,25.22,27.83,44.3,35.75,35.63,14.78,82.31,13.78,127.46,12.8C422.42,1104.16,433.89,1103.92,445.25,1103.92Z" transform="translate(0 -130.33)" style="fill: #416cb4"/>
    <path d="M1044.21,1318.3q-10.12,0-20.22-.57c-86.52-5-177.29-37.72-269.81-97.41-21.5-13.87-42.74-30.3-63.29-46.19-52.28-40.45-106.35-82.27-173.07-89.61-23-2.52-48.46-2-73.08-1.44-41.78.92-85,1.85-118.21-12.08-37.46-15.71-57.75-48.92-62-101.52-1.05-12.88-1.24-26.1-1.43-38.87-.38-26.17-.78-53.23-8.57-78.39a117.71,117.71,0,0,0-25.39-43.85v0c-9.12-10.27-19-19.25-28.6-27.92-18-16.31-35-31.71-47.31-55a234.64,234.64,0,0,1-25.14-123.83c3.27-50.11,15.39-99.3,35.06-142.25,21.59-47.16,51.33-85.76,88.37-114.74,25.22-19.72,55.33-34.91,89.47-45.13a353.9,353.9,0,0,1,99.14-14.34c17.1,0,34.23,1.47,50.81,2.94,22,1.95,44.74,4,67.68,2.34a845.13,845.13,0,0,0,125.09-19.77c25.44-5.72,51.83-13.08,77.36-20.21,68.6-19.14,139.53-38.94,209.12-32.95,85.62,7.38,177.34,37.82,272.62,90.46,48.34,26.71,86.08,50,118.76,73.43,42.82,30.65,76.77,61.26,103.78,93.55,57.92,69.27,79.2,148.89,59.9,224.2-13.38,52.18-38.28,100.58-62.35,147.39-13.79,26.81-28,54.53-39.95,82.6-13.39,31.58-24.29,64.81-34.83,96.95-11.95,36.4-24.29,74-40.32,109.48-27,59.58-73.32,108.29-134.1,140.87C1162.77,1303.68,1103.29,1318.3,1044.21,1318.3Zm-568.12-238a389.48,389.48,0,0,1,42,1.9c67.35,7.41,121.68,49.44,174.22,90.07,20.5,15.86,41.71,32.26,63.12,46.08,92.18,59.47,182.58,92.12,268.7,97,65.18,3.74,132.12-10.85,188.47-41.06,60.33-32.34,106.35-80.68,133.1-139.8,16-35.33,28.3-72.91,40.22-109.24,10.56-32.19,21.48-65.47,34.9-97.13,11.93-28.15,26.21-55.91,40-82.75,24-46.7,48.86-95,62.17-146.92,19.11-74.57-2-153.47-59.44-222.16-31.76-38-85.67-91.2-221.89-166.44-95-52.49-186.41-82.83-271.7-90.18-69.19-6-139.92,13.78-208.32,32.87-25.55,7.13-52,14.51-77.45,20.24a848.12,848.12,0,0,1-125.44,19.82c-23.13,1.64-46-.39-68.05-2.35-16.53-1.47-33.63-2.95-50.6-2.93a351.84,351.84,0,0,0-98.49,14.24c-33.87,10.14-63.72,25.2-88.72,44.75-36.75,28.74-66.26,67.06-87.7,113.89-19.55,42.7-31.6,91.61-34.85,141.45a232.35,232.35,0,0,0,24.88,122.61c12.12,22.95,29,38.21,46.81,54.38,9.63,8.72,19.58,17.73,28.78,28.1a120.07,120.07,0,0,1,25.87,44.71c7.9,25.48,8.3,52.7,8.68,79,.19,12.74.38,25.92,1.42,38.73,2.25,27.73,8.75,49.43,19.87,66.34,9.87,15,23.21,25.89,40.76,33.24,32.78,13.75,75.73,12.82,117.27,11.91C455.09,1080.57,465.64,1080.34,476.09,1080.34Z" transform="translate(0 -130.33)" style="fill: #416cb4"/>
    <path d="M1027.08,1279.73q-9.33,0-18.64-.54c-79.58-4.6-163.11-35.08-248.24-90.59-19.77-12.89-39.31-28.17-58.2-42.94-48.11-37.61-97.86-76.52-159.24-83.33-21.16-2.36-44.6-1.85-67.27-1.35-38.43.85-78.17,1.72-108.74-11.24-34.46-14.61-53.12-45.49-57.05-94.4-1-12-1.14-24.28-1.31-36.16-.35-24.34-.71-49.5-7.89-72.9a109.93,109.93,0,0,0-23.32-40.79v0c-8.39-9.56-17.51-17.91-26.33-26-16.55-15.16-32.19-29.48-43.52-51.15a220.29,220.29,0,0,1-23.11-115.14c3-46.6,14.15-92.35,32.25-132.29,19.86-43.85,47.22-79.75,81.3-106.7,44.86-35.47,106.49-55.11,173.53-55.31,15.75,0,31.5,1.37,46.75,2.74,20.23,1.82,41.15,3.69,62.24,2.18a769.54,769.54,0,0,0,115.09-18.38c23.39-5.32,47.65-12.17,71.12-18.79,63.12-17.82,128.4-36.24,192.43-30.66,78.76,6.86,163.15,35.17,250.83,84.12,70.1,39.15,149.25,88.22,204.74,155.3,53.28,64.42,72.85,138.46,55.1,208.49-12.31,48.54-35.22,93.56-57.38,137.1-12.68,24.92-25.8,50.69-36.74,76.78-12.31,29.35-22.34,60.24-32,90.11-11,33.87-22.36,68.89-37.11,101.87-24.8,55.42-67.46,100.72-123.37,131C1136.14,1266.14,1081.43,1279.73,1027.08,1279.73ZM504.32,1058.44a354.33,354.33,0,0,1,38.67,1.78c62,6.89,112,46,160.31,83.78,18.86,14.74,38.36,30,58.05,42.83,84.83,55.3,168,85.67,247.22,90.25,60,3.47,121.54-10.09,173.38-38.17,55.5-30.08,97.84-75,122.44-130,14.71-32.87,26.06-67.84,37-101.65,9.71-29.91,19.75-60.85,32.09-90.28,11-26.16,24.11-52,36.81-76.92,22.11-43.44,45-88.35,57.22-136.66,17.57-69.36-1.85-142.74-54.69-206.62C1357.59,429.94,1278.65,381,1208.72,342c-87.42-48.81-171.52-77-250-83.86-63.66-5.55-128.74,12.82-191.68,30.59-23.49,6.63-47.78,13.49-71.21,18.82a774.5,774.5,0,0,1-115.41,18.43c-21.27,1.52-42.28-.37-62.59-2.19-15.21-1.37-31-2.79-46.55-2.73-66.58.2-127.74,19.68-172.23,54.85-33.81,26.74-61,62.38-80.68,105.92-18,39.71-29.08,85.2-32.07,131.55a218.25,218.25,0,0,0,22.89,114c11.15,21.32,26.65,35.52,43.06,50.55,8.86,8.11,18,16.51,26.48,26.15a112.15,112.15,0,0,1,23.77,41.58c7.27,23.69,7.63,49,8,73.5.17,11.85.35,24.11,1.3,36,2.07,25.79,8.05,46,18.28,61.7,9.08,14,21.34,24.08,37.49,30.92,30.15,12.78,69.66,11.92,107.86,11.07C485,1058.66,494.7,1058.44,504.32,1058.44Z" transform="translate(0 -130.33)" style="fill: #416cb4"/>
    <path d="M1011.29,1243.87q-8.58,0-17.13-.49c-73.24-4.29-150.07-32.64-228.37-84.26-18.2-12-36.18-26.21-53.57-39.95-44.25-35-90-71.15-146.47-77.49-19.47-2.19-41-1.71-61.88-1.25-71,1.58-144.48,3.2-152.54-98.25-.89-11.14-1.05-22.58-1.21-33.63-.32-22.64-.65-46-7.25-67.8a102.67,102.67,0,0,0-21.48-37.94h0c-7.71-8.88-16.09-16.65-24.2-24.15-15.24-14.1-29.63-27.43-40-47.59A206.88,206.88,0,0,1,235.85,624c2.77-43.34,13-85.88,29.68-123,18.27-40.78,43.44-74.17,74.79-99.23,41.26-33,98-51.26,159.66-51.43,14.45-.08,29,1.27,43,2.54,18.61,1.69,37.85,3.44,57.25,2a703.31,703.31,0,0,0,105.88-17.1c21.53-4.95,43.86-11.32,65.46-17.48,58.06-16.57,118.11-33.7,177-28.51,72.46,6.38,150.1,32.71,230.75,78.24,64.5,36.41,137.31,82.05,188.36,144.42,49,59.9,67,128.76,50.69,193.89-11.32,45.13-32.39,87-52.77,127.49C1354,859,1341.9,883,1331.83,907.25c-11.32,27.29-20.54,56-29.46,83.79-10.11,31.5-20.57,64.07-34.14,94.74-22.8,51.54-62,93.68-113.49,121.85C1111.65,1231.23,1061.3,1243.87,1011.29,1243.87ZM530.37,1038.08a323.76,323.76,0,0,1,35.59,1.65c57,6.4,103,42.75,147.48,77.9,17.35,13.72,35.3,27.91,53.43,39.85,78,51.43,154.52,79.67,227.41,83.94,55.17,3.23,111.82-9.39,159.51-35.51,51.07-28,90-69.78,112.65-120.92,13.53-30.58,24-63.1,34.07-94.55,8.93-27.81,18.16-56.57,29.51-83.94,10.1-24.34,22.18-48.35,33.87-71.57,20.33-40.39,41.36-82.16,52.62-127.08,16.18-64.51-1.68-132.76-50.3-192.17-50.85-62.12-123.47-107.63-187.81-144-80.41-45.39-157.78-71.63-230-78-58.55-5.16-118.41,11.92-176.3,28.44-21.62,6.17-44,12.55-65.55,17.51a705.69,705.69,0,0,1-106.17,17.15c-19.58,1.42-38.9-.34-57.59-2-14-1.27-28.43-2.57-42.84-2.54-61.25.17-117.52,18.28-158.43,51-31.11,24.87-56.09,58-74.23,98.5-16.56,36.93-26.76,79.24-29.51,122.35a204.84,204.84,0,0,0,21.07,106.06c10.25,19.85,24.51,33.06,39.62,47,8.15,7.54,16.57,15.34,24.36,24.31a104.59,104.59,0,0,1,21.88,38.65c6.68,22,7,45.58,7.34,68.35.16,11,.32,22.43,1.2,33.51,1.91,24,7.41,42.76,16.82,57.39,8.35,13,19.64,22.39,34.49,28.75,27.74,11.89,64.08,11.08,99.24,10.3C512.62,1038.28,521.53,1038.08,530.37,1038.08Z" transform="translate(0 -130.33)" style="fill: #416cb4"/>
    <path d="M996.85,1210.49q-7.92,0-15.81-.47c-67.36-4-138.06-30.34-210.11-78.35-16.77-11.16-33.33-24.39-49.35-37.19-40.7-32.51-82.78-66.12-134.7-72-17.9-2-37.74-1.59-56.92-1.16-65.35,1.47-132.93,3-140.35-91.36-.81-10.36-1-21-1.11-31.25-.29-21.06-.6-42.83-6.67-63.08a94.42,94.42,0,0,0-19.78-35.31h0c-7.09-8.26-14.8-15.47-22.25-22.45-14-13.12-27.26-25.51-36.86-44.28A194.21,194.21,0,0,1,283.37,634c2.55-40.31,12-79.87,27.29-114.4,16.82-37.93,40-69,68.82-92.29,38-30.67,90.13-47.67,146.89-47.84,13.3,0,26.62,1.18,39.52,2.36,17.14,1.58,34.87,3.2,52.74,1.89A638.11,638.11,0,0,0,716,367.84c19.81-4.6,40.36-10.53,60.24-16.26,53.41-15.4,108.65-31.33,162.85-26.5,66.66,5.93,138.08,30.41,212.3,72.75,59.34,33.88,126.34,76.32,173.29,134.32,45.1,55.71,61.66,119.74,46.64,180.3-10.42,42-29.8,80.89-48.54,118.53-10.74,21.57-21.85,43.88-31.11,66.46-10.42,25.38-18.9,52.09-27.11,77.92-9.3,29.3-18.93,59.6-31.42,88.13-21,47.93-57.09,87.11-104.41,113.31C1089.14,1198.73,1042.84,1210.49,996.85,1210.49ZM554.34,1019.12a292.69,292.69,0,0,1,32.75,1.54c52.43,6,94.72,39.74,135.62,72.41,16,12.77,32.52,26,49.22,37.09,71.79,47.83,142.18,74.1,209.22,78,50.76,3,102.87-8.71,146.74-33,47-26,82.81-64.89,103.63-112.45,12.45-28.44,22.06-58.69,31.36-88,8.21-25.86,16.71-52.6,27.15-78.06,9.29-22.64,20.41-45,31.17-66.58,18.7-37.55,38-76.39,48.4-118.15,14.88-60-1.56-123.47-46.28-178.73-46.77-57.76-113.59-100.09-172.79-133.88-74-42.22-145.16-66.62-211.56-72.53C885.1,322.09,830,338,776.78,353.32c-19.9,5.74-40.47,11.68-60.32,16.29a640.2,640.2,0,0,1-97.68,15.94c-18,1.32-35.84-.31-53.06-1.89-12.85-1.18-26.12-2.38-39.35-2.36-56.35.18-108.11,17-145.75,47.44-28.62,23.12-51.6,53.95-68.3,91.61C297.1,554.69,287.71,594,285.18,634.14a192.42,192.42,0,0,0,19.37,98.61c9.45,18.47,22.58,30.76,36.48,43.77,7.48,7,15.22,14.25,22.38,22.58a96.27,96.27,0,0,1,20.16,36c6.14,20.5,6.45,42.4,6.75,63.59.14,10.24.29,20.83,1.1,31.12,3.27,41.57,18.71,67.78,47.21,80.12,25.52,11.05,58.95,10.3,91.29,9.58C538,1019.31,546.21,1019.12,554.34,1019.12Z" transform="translate(0 -130.33)" style="fill: #416cb4"/>
    <path d="M983.45,1179.45q-7.26,0-14.51-.43c-62-3.69-127-28.21-193.31-72.87-15.4-10.37-30.61-22.66-45.32-34.54-37.46-30.26-76.2-61.54-124-67-16.47-1.89-34.71-1.48-52.36-1.08-60.13,1.36-122.31,2.77-129.13-85-.75-9.64-.89-19.52-1-29.08-.27-19.58-.56-39.83-6.14-58.66A88.17,88.17,0,0,0,399.48,798h0A266.9,266.9,0,0,0,379,777.11c-12.9-12.19-25.08-23.71-33.91-41.16a182.66,182.66,0,0,1-18-92.61c5-80.35,37.25-150.41,88.43-192.22,34.95-28.53,82.95-44.34,135.14-44.49,12.24,0,24.51,1.1,36.38,2.2,15.77,1.46,32.07,3,48.5,1.75a580.81,580.81,0,0,0,89.61-14.79c18.23-4.28,37.13-9.79,55.42-15.12,49.15-14.33,100-29.14,149.82-24.65,61.35,5.52,127.06,28.29,195.33,67.68,54.6,31.5,116.24,71,159.43,124.9,41.48,51.82,56.71,111.36,42.9,167.67-9.58,39-27.41,75.22-44.66,110.23-9.88,20.06-20.1,40.81-28.63,61.82-9.58,23.6-17.38,48.44-24.93,72.46-8.56,27.25-17.41,55.42-28.9,82-19.3,44.57-52.52,81-96.07,105.38A250.81,250.81,0,0,1,983.45,1179.45Zm-407-178a267.42,267.42,0,0,1,30.1,1.43c48.27,5.55,87.2,37,124.85,67.4,14.69,11.86,29.87,24.12,45.21,34.45,66,44.49,130.8,68.91,192.47,72.59,46.68,2.79,94.63-8.11,135-30.7,43.22-24.19,76.19-60.36,95.35-104.59,11.46-26.44,20.29-54.57,28.84-81.78,7.56-24,15.37-48.93,25-72.59,8.55-21.07,18.78-41.84,28.68-61.93,17.21-34.93,35-71,44.53-109.89,13.69-55.79-1.43-114.82-42.58-166.22-43-53.71-104.49-93.08-159-124.5-68-39.26-133.54-62-194.64-67.46C880.69,353.22,830,368,781,382.28c-18.31,5.34-37.24,10.86-55.5,15.14a583.57,583.57,0,0,1-89.87,14.83c-16.58,1.24-32.95-.28-48.78-1.75-11.83-1.1-24.07-2.24-36.22-2.19-51.81.15-99.43,15.82-134.09,44.11-50.82,41.51-82.83,111.14-87.82,191a180.8,180.8,0,0,0,17.84,91.74c8.69,17.18,20.76,28.6,33.55,40.7a270.09,270.09,0,0,1,20.6,21,89.59,89.59,0,0,1,18.53,33.42c5.66,19.06,5.94,39.42,6.22,59.11.13,9.54.27,19.39,1,29,3,38.66,17.22,63,43.44,74.51,23.47,10.28,54.23,9.58,84,8.9C561.37,1001.65,568.92,1001.48,576.41,1001.48Z" transform="translate(0 -130.33)" style="fill: #416cb4"/>
    <path d="M971.17,1150.62q-6.69,0-13.34-.4c-57.06-3.45-116.9-26.25-177.86-67.78-14.17-9.65-28.18-21.08-41.72-32.14-34.45-28.13-70.08-57.22-114-62.32-15.15-1.76-31.94-1.38-48.17-1-55.32,1.27-112.53,2.58-118.81-79-.68-8.94-.81-18.11-.93-27-.25-18.23-.51-37.08-5.66-54.61a82.19,82.19,0,0,0-16.75-30.52h0A246,246,0,0,0,415,776.4c-11.86-11.34-23.05-22-31.17-38.26A171.22,171.22,0,0,1,367.31,652c4.63-74.74,34.27-139.9,81.34-178.75,32.13-26.53,76.29-41.23,124.34-41.39,11.25-.05,22.55,1,33.47,2.05,14.51,1.36,29.5,2.77,44.61,1.64a532.61,532.61,0,0,0,82.45-13.75c16.75-4,34.13-9.1,50.93-14.06,45.24-13.33,92-27.11,137.91-22.94,56.45,5.14,116.9,26.32,179.69,62.94,31.86,18.57,56.73,34.8,78.28,51.08,28.22,21.33,50.6,42.62,68.4,65.09,38.16,48.17,52.18,103.55,39.46,155.92-8.81,36.29-25.21,69.95-41.07,102.51-9.09,18.65-18.49,37.94-26.34,57.48-8.8,21.94-16,45-22.92,67.36-7.88,25.35-16,51.56-26.61,76.25-17.76,41.45-48.32,75.34-88.38,98A228.89,228.89,0,0,1,971.17,1150.62ZM596.73,985.11a241.74,241.74,0,0,1,27.68,1.33c44.39,5.16,80.19,34.39,114.82,62.66,13.52,11,27.5,22.45,41.62,32.06,60.72,41.36,120.3,64.08,177.07,67.51a227.31,227.31,0,0,0,124.19-28.55c39.76-22.5,70.09-56.14,87.72-97.28,10.54-24.61,18.68-50.78,26.55-76.09,6.95-22.36,14.14-45.48,23-67.48,7.87-19.59,17.28-38.9,26.38-57.58,15.83-32.48,32.19-66.06,41-102.2,12.59-51.9-1.32-106.8-39.18-154.59-20.93-26.42-56.47-63.46-146.24-115.79-62.59-36.51-122.83-57.62-179-62.74-45.61-4.14-92.24,9.6-137.33,22.89-16.82,5-34.22,10.09-51,14.07a531.93,531.93,0,0,1-82.69,13.79c-15.25,1.15-30.31-.27-44.88-1.63-10.89-1-22.14-2.08-33.32-2.05-47.69.16-91.5,14.73-123.36,41-46.74,38.59-76.18,103.34-80.79,177.66a169.71,169.71,0,0,0,16.41,85.33c8,16,19.1,26.57,30.85,37.81a249.1,249.1,0,0,1,19,19.57,83.62,83.62,0,0,1,17.07,31.1c5.21,17.73,5.47,36.69,5.72,55,.12,8.84.25,18,.93,26.88,2.77,35.95,15.84,58.62,40,69.3,21.6,9.56,49.9,8.91,77.27,8.28C582.88,985.27,589.84,985.11,596.73,985.11Z" transform="translate(0 -130.33)" style="fill: #416cb4"/>
    <path d="M959.88,1123.78q-6.17,0-12.31-.37c-52.46-3.2-107.51-24.41-163.62-63-13-9-25.9-19.59-38.35-29.87-31.72-26.17-64.51-53.23-105-58-13.94-1.63-29.38-1.28-44.31-.93-50.9,1.18-103.54,2.4-109.3-73.48-.64-8.35-.76-16.91-.87-25.19-.24-16.92-.48-34.42-5.2-50.7a76.49,76.49,0,0,0-15.4-28.38h0a225.08,225.08,0,0,0-17.34-18.07c-10.91-10.55-21.22-20.51-28.68-35.59a161,161,0,0,1-15.24-80.09c4.24-69.49,31.52-130.08,74.84-166.23,29.56-24.67,70.18-38.34,114.39-38.49,10.37-.05,20.76.95,30.81,1.91,13.34,1.26,27.13,2.57,41,1.52A483.22,483.22,0,0,0,741.21,446c15.42-3.7,31.42-8.47,46.89-13.08,41.6-12.39,84.62-25.2,126.84-21.32,51.93,4.77,107.55,24.46,165.32,58.52,46.2,27.23,98.37,61.37,135,108,35.11,44.81,48,96.31,36.31,145-8.11,33.75-23.21,65.07-37.81,95.36-8.36,17.34-17,35.27-24.22,53.43-8.11,20.42-14.72,41.91-21.11,62.7-7.24,23.55-14.74,47.92-24.46,70.85a189.62,189.62,0,0,1-81.3,91.15A208.66,208.66,0,0,1,959.88,1123.78ZM615.33,969.87a222.25,222.25,0,0,1,25.49,1.23c40.86,4.8,73.82,32,105.69,58.31,12.43,10.25,25.27,20.85,38.25,29.79,55.89,38.47,110.7,59.59,162.9,62.78a207.15,207.15,0,0,0,114.25-26.55A188.22,188.22,0,0,0,1142.6,1005c9.69-22.87,17.17-47.19,24.41-70.72,6.4-20.81,13-42.33,21.15-62.8,7.23-18.2,15.89-36.16,24.26-53.52,14.57-30.22,29.63-61.47,37.7-95.08,11.59-48.26-1.21-99.32-36-143.78-36.44-46.49-88.46-80.53-134.54-107.69-57.6-33.95-113-53.58-164.73-58.33-41.94-3.86-84.83,8.91-126.3,21.27-15.49,4.61-31.51,9.38-47,13.09a484.66,484.66,0,0,1-76.06,12.83c-14,1.06-27.89-.25-41.29-1.52-10-.95-20.35-1.93-30.66-1.91-43.88.15-84.18,13.7-113.48,38.16-43,35.9-70.11,96.12-74.33,165.23a159.48,159.48,0,0,0,15.1,79.36c7.35,14.85,17.57,24.73,28.39,35.19a228,228,0,0,1,17.44,18.18,77.76,77.76,0,0,1,15.68,28.91c4.79,16.46,5,34.06,5.26,51.08.12,8.26.23,16.8.87,25.1,2.54,33.44,14.56,54.52,36.76,64.45,19.86,8.89,45.9,8.29,71.08,7.7C602.61,970,609,969.87,615.33,969.87Z" transform="translate(0 -130.33)" style="fill: #416cb4"/>
    <path d="M949.43,1098.83c-3.77,0-7.53-.11-11.29-.34-48.29-3-98.94-22.71-150.53-58.62-12-8.35-23.83-18.23-35.29-27.78-29.17-24.34-59.34-49.5-96.54-53.92-12.82-1.52-27-1.19-40.77-.87-46.83,1.1-95.25,2.24-100.56-68.33-.58-7.75-.69-15.71-.8-23.41-.21-15.74-.43-32-4.78-47.18A71.46,71.46,0,0,0,494.7,792h0a210.92,210.92,0,0,0-16-16.81c-10-9.81-19.52-19.08-26.39-33.1a151.16,151.16,0,0,1-14-74.47c3.91-64.63,29-121,68.85-154.6,27.25-23,64.63-35.69,105.25-35.79,9.55,0,19.11.89,28.36,1.77,12.27,1.18,25,2.39,37.74,1.42a441,441,0,0,0,69.77-11.9c14.17-3.44,28.87-7.87,43.09-12.15,38.29-11.53,77.89-23.45,116.75-19.85,47.75,4.45,98.93,22.77,152.1,54.45,42.5,25.32,90.49,57.06,124.14,100.47,32.3,41.67,44.17,89.55,33.4,134.84-7.45,31.38-21.34,60.5-34.76,88.65-7.7,16.14-15.66,32.83-22.3,49.74-7.45,19-13.52,38.93-19.39,58.24-6.67,21.93-13.57,44.61-22.53,66a175.69,175.69,0,0,1-74.8,84.76A190.52,190.52,0,0,1,949.43,1098.83ZM632.5,955.7a200.28,200.28,0,0,1,23.43,1.15c37.6,4.47,67.92,29.76,97.24,54.22,11.44,9.53,23.26,19.4,35.2,27.71,51.39,35.77,101.81,55.41,149.86,58.38a189,189,0,0,0,105.11-24.69,174.4,174.4,0,0,0,74.24-84.12c8.93-21.29,15.82-43.94,22.48-65.84,5.88-19.33,12-39.32,19.43-58.34,6.65-16.95,14.62-33.66,22.33-49.82,13.4-28.09,27.25-57.14,34.67-88.39,10.67-44.88-1.11-92.37-33.16-133.72C1149.81,549,1102,517.36,1059.56,492.1c-53-31.58-104-49.84-151.55-54.26-38.61-3.59-78.07,8.3-116.24,19.79-14.23,4.29-28.95,8.72-43.15,12.17a442.09,442.09,0,0,1-70,11.93c-12.91,1-25.65-.23-38-1.41-9.22-.89-18.75-1.78-28.23-1.77C572.12,478.65,535,491.25,508,514c-39.57,33.39-64.49,89.39-68.38,153.66a149.62,149.62,0,0,0,13.89,73.81c6.77,13.82,16.17,23,26.12,32.73a213.4,213.4,0,0,1,16.05,16.9h0A72.89,72.89,0,0,1,510.15,818c4.4,15.33,4.62,31.7,4.83,47.54.11,7.67.21,15.61.8,23.32,2.34,31.11,13.4,50.71,33.81,60,18.28,8.26,42.23,7.7,65.39,7.15C620.78,955.84,626.67,955.7,632.5,955.7Z" transform="translate(0 -130.33)" style="fill: #416cb4"/>
    <path d="M939.9,1075.62q-5.22,0-10.41-.33c-44.41-2.77-91-21.11-138.51-54.52-11-7.76-21.93-16.95-32.47-25.84-26.83-22.63-54.58-46-88.8-50.13-11.8-1.42-24.88-1.11-37.53-.81-43.07,1-87.61,2.08-92.5-63.55-.53-7.2-.63-14.59-.73-21.73-.2-14.66-.4-29.81-4.4-43.91a67,67,0,0,0-13-24.54h0a195.8,195.8,0,0,0-14.68-15.64c-9.23-9.12-17.95-17.73-24.27-30.77a142,142,0,0,1-12.9-69.26c3.6-60.11,26.68-112.51,63.34-143.77,25-21.35,59.42-33.17,96.83-33.29,8.77,0,17.56.83,26.06,1.65,11.29,1.1,23,2.23,34.75,1.31a400.2,400.2,0,0,0,64.19-11.05c13-3.2,26.58-7.33,39.67-11.31,35.22-10.72,71.64-21.81,107.38-18.45,43.94,4.13,91,21.16,139.94,50.61,39.1,23.55,83.26,53.08,114.21,93.44,29.71,38.75,40.63,83.28,30.74,125.4-6.88,29.18-19.64,56.25-32,82.42-7.09,15-14.41,30.54-20.52,46.26-6.87,17.67-12.46,36.26-17.87,54.24-6.13,20.37-12.47,41.44-20.7,61.27a162.81,162.81,0,0,1-68.82,78.85A173.75,173.75,0,0,1,939.9,1075.62ZM648.28,942.51a182.39,182.39,0,0,1,21.58,1.07c34.58,4.14,62.47,27.66,89.44,50.41,10.52,8.87,21.4,18,32.39,25.77,47.31,33.28,93.69,51.55,137.87,54.31a172.4,172.4,0,0,0,96.7-23,161.69,161.69,0,0,0,68.31-78.26c8.2-19.78,14.53-40.81,20.65-61.16,5.42-18,11-36.61,17.91-54.32,6.12-15.76,13.45-31.31,20.54-46.34,12.32-26.12,25.06-53.13,31.9-82.18,9.81-41.75-1-85.92-30.51-124.37-30.84-40.2-74.87-69.64-113.88-93.14C992.43,482,945.52,465,901.77,460.9c-35.5-3.33-71.81,7.72-106.91,18.4-13.11,4-26.66,8.12-39.73,11.33a402.51,402.51,0,0,1-64.39,11.09c-11.89.92-23.62-.22-35-1.32-8.47-.82-17.23-1.65-25.94-1.64-37.11.12-71.22,11.83-96,33-36.4,31-59.34,83.13-62.91,142.91a140.64,140.64,0,0,0,12.78,68.65c6.22,12.84,14.87,21.38,24,30.42a198.39,198.39,0,0,1,14.77,15.74,67.88,67.88,0,0,1,13.27,25c4,14.26,4.25,29.5,4.45,44.23.1,7.13.2,14.5.73,21.66,2.15,28.93,12.33,47.17,31.11,55.76,16.8,7.68,38.83,7.15,60.13,6.65C637.49,942.63,642.91,942.51,648.28,942.51Z" transform="translate(0 -130.33)" style="fill: #416cb4"/>
    <path d="M932.05,1054.12c-3.49,0-7-.12-10.53-.36-40.86-2.58-83.73-19.64-127.42-50.71-10.15-7.21-20.19-15.77-29.89-24-24.68-21-50.2-42.8-81.69-46.62-10.85-1.31-22.87-1-34.5-.74-39.64.94-80.63,1.93-85.12-59.1-.49-6.7-.58-13.57-.67-20.21-.18-13.63-.37-27.72-4.06-40.83a62.51,62.51,0,0,0-12-22.86h0a180.62,180.62,0,0,0-13.51-14.53c-8.5-8.48-16.52-16.49-22.33-28.62a133.14,133.14,0,0,1-11.86-64.39c3.31-55.9,24.55-104.64,58.27-133.7,23-19.87,54.68-30.86,89.09-31,8,0,16.15.77,24,1.54,10.39,1,21.14,2.07,32,1.22a364.82,364.82,0,0,0,59.05-10.28c12-3,24.46-6.81,36.5-10.52,32.4-10,65.9-20.28,98.79-17.15,40.45,3.84,83.77,19.68,128.75,47.08,64.47,39.25,90,67,105.08,86.9,27.34,36,37.38,77.44,28.26,116.61-6.31,27.16-18.07,52.35-29.44,76.72-6.51,13.94-13.24,28.36-18.85,43-6.33,16.44-11.48,33.75-16.47,50.49-5.63,18.93-11.46,38.5-19,56.92A154.1,154.1,0,0,1,932.05,1054.12ZM662.82,930.27a165.88,165.88,0,0,1,19.83,1c31.83,3.86,57.49,25.73,82.3,46.88,9.68,8.25,19.69,16.79,29.81,24,43.51,30.94,86.19,47.93,126.83,50.5a153,153,0,0,0,151.8-94.13c7.53-18.37,13.35-37.91,19-56.82,5-16.75,10.15-34.09,16.49-50.57,5.63-14.64,12.37-29.08,18.88-43,11.35-24.31,23.09-49.45,29.37-76.5,9-38.84-.93-79.91-28.07-115.67-15-19.76-40.45-47.46-104.76-86.61-44.84-27.31-88-43.1-128.26-46.92-32.67-3.1-66.06,7.17-98.36,17.11-12,3.71-24.52,7.54-36.55,10.53a365.88,365.88,0,0,1-59.24,10.31c-10.93.86-21.73-.2-32.17-1.22a234.31,234.31,0,0,0-23.86-1.53c-34.14.1-65.52,11-88.35,30.69C524,577.12,502.9,625.57,499.61,681.17A132,132,0,0,0,511.37,745c5.72,11.94,13.67,19.89,22.1,28.3a179.72,179.72,0,0,1,13.59,14.62,63.58,63.58,0,0,1,12.2,23.27c3.73,13.25,3.92,27.42,4.1,41.12.09,6.63.18,13.48.67,20.14,2,26.91,11.35,43.87,28.63,51.86,15.46,7.15,35.73,6.66,55.34,6.19C652.91,930.39,657.89,930.27,662.82,930.27Z" transform="translate(0 -130.33)" style="fill: #416cb4"/>
    <path d="M923.59,1034c-3.12,0-6.25-.11-9.4-.31-37.6-2.4-77-18.27-117.23-47.16-9.34-6.71-18.56-14.66-27.48-22.35-22.72-19.57-46.2-39.81-75.17-43.36-10-1.22-21-1-31.74-.7-36.47.88-74.18,1.8-78.31-55-.46-6.25-.54-12.66-.63-18.86-.16-12.65-.33-25.74-3.72-37.91a58.06,58.06,0,0,0-11-21.25h0a166.29,166.29,0,0,0-12.43-13.51c-7.81-7.89-15.19-15.34-20.54-26.62A124.93,124.93,0,0,1,525,687.13c3-52,22.58-97.28,53.61-124.34,21.18-18.47,50.28-28.69,82-28.8a213.35,213.35,0,0,1,22.05,1.43c9.56.94,19.44,1.92,29.41,1.13A332.66,332.66,0,0,0,766.35,527c11-2.77,22.44-6.32,33.49-9.76,29.84-9.29,60.7-18.89,91-16,37.19,3.57,77,18.3,118.45,43.79,33.11,20.37,70.48,45.91,96.65,80.81,25.15,33.51,34.39,72,26,108.45-5.8,25.24-16.61,48.66-27.07,71.31-6,13-12.19,26.4-17.36,40-5.8,15.28-10.54,31.35-15.11,46.89-5.19,17.63-10.56,35.86-17.53,53A141.55,141.55,0,0,1,923.59,1034ZM676.18,918.86a150.49,150.49,0,0,1,18.26.93c29.28,3.59,52.89,23.93,75.72,43.61,8.91,7.67,18.11,15.61,27.41,22.29,40,28.77,79.28,44.57,116.68,47a140.5,140.5,0,0,0,139.64-87.54c6.95-17.12,12.31-35.32,17.49-52.93,4.58-15.56,9.32-31.65,15.14-47,5.19-13.62,11.39-27.06,17.39-40.05,10.43-22.6,21.22-46,27-71.11,8.31-36.11-.86-74.32-25.82-107.58-26.07-34.76-63.35-60.22-96.37-80.55-41.27-25.4-81-40.08-118-43.64-30.07-2.88-60.83,6.69-90.57,15.94-11.06,3.44-22.5,7-33.54,9.78a334.36,334.36,0,0,1-54.5,9.59c-10.07.8-20-.19-29.6-1.14a209.4,209.4,0,0,0-22-1.42c-31.42.11-60.28,10.24-81.27,28.54-30.82,26.87-50.23,71.93-53.26,123.61a124,124,0,0,0,10.82,59.39c5.27,11.11,12.59,18.5,20.34,26.32a168.84,168.84,0,0,1,12.5,13.6,59.11,59.11,0,0,1,11.23,21.63c3.42,12.3,3.6,25.46,3.76,38.18.09,6.18.17,12.57.62,18.79,1.83,25,10.44,40.8,26.34,48.23,14.22,6.64,32.87,6.19,50.9,5.75C667.06,919,671.64,918.86,676.18,918.86Z" transform="translate(0 -130.33)" style="fill: #416cb4"/>
    <path d="M915.9,1015.31q-4.2,0-8.45-.27c-34.6-2.22-70.89-17-107.85-43.84-8.6-6.25-17.09-13.65-25.3-20.8-20.89-18.2-42.49-37-69.13-40.32-9.18-1.13-19.36-.89-29.2-.64-33.55.82-68.25,1.67-72.06-51.11-.41-5.79-.49-11.73-.56-17.48-.16-11.79-.32-24-3.43-35.33a54.49,54.49,0,0,0-10.18-19.76h0a152.38,152.38,0,0,0-11.43-12.57c-7.19-7.34-14-14.26-18.9-24.76a117.52,117.52,0,0,1-10-55.68c2.8-48.34,20.78-90.49,49.33-115.64,19.51-17.18,46.29-26.68,75.41-26.78a197.5,197.5,0,0,1,20.31,1.33c8.79.88,17.88,1.78,27,1.06a303.63,303.63,0,0,0,50-8.91c10.17-2.57,20.71-5.89,30.91-9.09,27.42-8.63,55.78-17.54,83.6-14.84,34.22,3.32,70.89,17,109,40.72,54.57,34,76.2,58,88.94,75.17,23.13,31.17,31.63,67,23.92,100.84-5.34,23.5-15.3,45.29-24.93,66.36-5.5,12.06-11.2,24.52-15.95,37.15-5.34,14.2-9.7,29.14-13.9,43.59-4.78,16.4-9.72,33.36-16.13,49.33A129.91,129.91,0,0,1,915.9,1015.31Zm-227.38-107a138.6,138.6,0,0,1,16.77.86c26.93,3.34,48.65,22.25,69.65,40.55,8.19,7.14,16.67,14.52,25.23,20.74,36.81,26.76,72.93,41.45,107.35,43.66A129,129,0,0,0,1036,932.68c6.39-15.93,11.32-32.86,16.09-49.24,4.22-14.47,8.57-29.43,13.93-43.67,4.76-12.65,10.47-25.13,16-37.2,9.61-21,19.54-42.78,24.86-66.18,7.65-33.57-.79-69.1-23.76-100-12.68-17.09-34.23-41.05-88.67-74.92-38-23.63-74.5-37.28-108.56-40.58-27.63-2.68-55.89,6.2-83.21,14.79-10.22,3.21-20.78,6.53-31,9.11a303.39,303.39,0,0,1-50.15,8.93c-9.25.74-18.39-.17-27.22-1a200.71,200.71,0,0,0-20.2-1.32c-28.89.09-55.45,9.51-74.78,26.53-28.35,25-46.21,66.89-49,115A116.59,116.59,0,0,0,560.29,748c4.85,10.33,11.58,17.2,18.71,24.48a152.84,152.84,0,0,1,11.5,12.65,55.28,55.28,0,0,1,10.35,20.11c3.15,11.46,3.31,23.72,3.47,35.57.07,5.73.15,11.66.56,17.42,1.68,23.28,9.61,38,24.24,44.85,13.08,6.18,30.24,5.76,46.83,5.36C680.11,908.36,684.33,908.26,688.52,908.26Z" transform="translate(0 -130.33)" style="fill: #416cb4"/>
    <path d="M908.74,998q-3.74,0-7.52-.23C869.4,995.67,836,982,802,957c-7.91-5.81-15.71-12.68-23.26-19.33-19.23-16.93-39.1-34.44-63.62-37.5-8.45-1.06-17.81-.83-26.86-.6-30.87.76-62.8,1.55-66.3-47.55-.39-5.39-.46-10.92-.52-16.27-.14-11-.29-22.29-3.16-32.83a50.47,50.47,0,0,0-9.32-18.4h0a148.12,148.12,0,0,0-10.55-11.73c-6.61-6.81-12.85-13.24-17.38-23A110.34,110.34,0,0,1,571.79,698c2.58-45,19.12-84.16,45.37-107.53,17.93-16,42.57-24.82,69.39-24.91a177,177,0,0,1,18.67,1.23c8.09.82,16.45,1.67,24.88,1a277.18,277.18,0,0,0,46-8.27c9.36-2.4,19.07-5.49,28.46-8.47,25.22-8,51.3-16.3,76.89-13.8,31.51,3.1,65.24,15.84,100.26,37.88,28,17.62,59.65,39.71,81.83,69.89,21.29,29,29.11,62.3,22,93.8-4.91,21.81-14.06,42.06-22.9,61.64-5.08,11.24-10.33,22.86-14.7,34.62-4.93,13.23-9,27.16-12.82,40.63-4.39,15.22-8.93,31-14.81,45.79A119.36,119.36,0,0,1,908.74,998Zm-209-99.54a125.34,125.34,0,0,1,15.46.8C740,902.34,760,919.93,779.33,937c7.54,6.64,15.33,13.5,23.2,19.28,33.88,24.89,67.11,38.56,98.75,40.62a118.47,118.47,0,0,0,118.19-75.71c5.87-14.78,10.4-30.51,14.78-45.71,3.88-13.49,7.9-27.43,12.84-40.69,4.39-11.79,9.64-23.43,14.73-34.68,8.82-19.54,18-39.74,22.84-61.47,7-31.24-.72-64.29-21.86-93.06-22.09-30.07-53.64-52.09-81.58-69.67-34.9-22-68.5-34.66-99.87-37.74-25.41-2.49-51.39,5.77-76.52,13.76-9.41,3-19.14,6.08-28.52,8.48a277.26,277.26,0,0,1-46.13,8.29c-8.52.69-16.92-.16-25-1a181.3,181.3,0,0,0-18.57-1.23c-26.6.09-51,8.86-68.8,24.68C591.68,614.34,575.25,653.3,572.69,698a109.44,109.44,0,0,0,9.16,51.36c4.46,9.59,10.65,16,17.2,22.73a143,143,0,0,1,10.61,11.8h0a51.37,51.37,0,0,1,9.49,18.72c2.9,10.65,3.05,22,3.19,33.05.06,5.34.13,10.86.52,16.23,1.54,21.65,8.84,35.3,22.29,41.72,12,5.75,27.82,5.36,43.09,5C692.06,898.53,695.93,898.44,699.77,898.44Z" transform="translate(0 -130.33)" style="fill: #416cb4"/>
    <path d="M902.22,981.77q-3.33,0-6.69-.2c-29.28-1.92-60-14.68-91.31-37.92-7.27-5.4-14.45-11.8-21.4-18-17.68-15.74-36-32-58.52-34.88-7.76-1-16.37-.77-24.7-.56-28.4.7-57.78,1.44-61-44.2-.36-5-.42-10.15-.49-15.12-.13-10.19-.26-20.74-2.91-30.55a47.32,47.32,0,0,0-8.58-17.09h0A132.77,132.77,0,0,0,617,772.4c-6.09-6.35-11.84-12.34-16-21.42a103.57,103.57,0,0,1-8.5-48.16c2.38-41.81,17.6-78.26,41.75-100A95.83,95.83,0,0,1,698,579.66a162.31,162.31,0,0,1,17.19,1.14c7.44.76,15.12,1.55,22.87.91A252.26,252.26,0,0,0,780.41,574c8.59-2.22,17.5-5.09,26.13-7.86,23.22-7.47,47.22-15.18,70.8-12.84,29,2.88,60,14.73,92.23,35.22,46.18,29.35,64.49,50.16,75.28,65,19.58,27,26.78,57.92,20.25,87.21-4.52,20.3-12.94,39.14-21.08,57.35-4.66,10.44-9.49,21.24-13.52,32.18-4.52,12.29-8.21,25.22-11.77,37.72-4,14.17-8.22,28.83-13.64,42.63a110.18,110.18,0,0,1-102.87,71.13Zm-192-92.55a115.18,115.18,0,0,1,14.21.74c22.8,2.89,41.19,19.26,59,35.09,6.93,6.17,14.1,12.55,21.34,17.93,31.18,23.15,61.75,35.85,90.86,37.76a109.32,109.32,0,0,0,108.73-70.4c5.41-13.77,9.58-28.4,13.62-42.56,3.57-12.52,7.26-25.46,11.79-37.78,4-11,8.87-21.77,13.54-32.23,8.13-18.17,16.53-37,21-57.19,6.47-29.05-.67-59.79-20.11-86.55-10.75-14.79-29-35.52-75.05-64.79-32.12-20.42-63-32.23-91.87-35.1-23.39-2.32-47.33,5.37-70.47,12.81-8.63,2.77-17.56,5.64-26.17,7.87a252.63,252.63,0,0,1-42.44,7.72c-7.83.64-15.56-.15-23-.91A163.66,163.66,0,0,0,698,580.49a95,95,0,0,0-63.28,23c-24,21.59-39.1,57.83-41.47,99.43a102.93,102.93,0,0,0,8.42,47.77c4.11,8.94,9.81,14.89,15.85,21.19a132.83,132.83,0,0,1,9.73,10.93A48,48,0,0,1,636,800.15c2.68,9.91,2.81,20.5,2.94,30.75.07,5,.13,10.09.48,15.07,1.42,20.13,8.13,32.82,20.51,38.8,11.08,5.34,25.6,5,39.64,4.63C703.1,889.31,706.66,889.22,710.2,889.22Z" transform="translate(0 -130.33)" style="fill: #416cb4"/>
    <path d="M896.22,966.76c-2,0-3.94-.06-5.93-.17-26.92-1.8-55.18-13.67-84-35.27-6.7-5-13.31-11-19.7-16.73-16.27-14.63-33.1-29.77-53.83-32.42-7.15-.92-15.08-.72-22.74-.52-26.13.65-53.15,1.34-56.11-41.11-.33-4.65-.39-9.43-.45-14-.12-9.48-.24-19.29-2.68-28.42a44.45,44.45,0,0,0-7.9-15.92h0A122.48,122.48,0,0,0,634,772c-5.6-5.9-10.88-11.47-14.72-19.9a97.19,97.19,0,0,1-7.81-44.78c2.18-38.88,16.18-72.79,38.4-93a87.81,87.81,0,0,1,58.75-21.55,142.57,142.57,0,0,1,15.8,1.07c6.84.71,13.92,1.44,21.05.84a227.79,227.79,0,0,0,38.93-7.15c7.9-2.07,16.11-4.73,24-7.31,21.35-6.94,43.44-14.11,65.11-11.94,26.67,2.67,55.23,13.7,84.87,32.77,23.72,15.24,50.5,34.34,69.26,60.45,18,25.06,24.62,53.86,18.62,81.1-4.16,18.89-11.9,36.41-19.39,53.35-4.29,9.71-8.73,19.74-12.43,29.91-4.17,11.44-7.57,23.48-10.85,35.13-3.71,13.17-7.55,26.79-12.53,39.61a101.34,101.34,0,0,1-94.87,66.14Zm-176.43-86a105,105,0,0,1,13.08.69c21,2.69,37.88,17.91,54.24,32.62,6.38,5.74,13,11.68,19.65,16.68,28.69,21.52,56.81,33.33,83.58,35.12a100.54,100.54,0,0,0,100-65.47c5-12.8,8.8-26.4,12.51-39.55,3.29-11.66,6.69-23.72,10.87-35.18,3.71-10.19,8.15-20.24,12.45-30,7.47-16.91,15.2-34.39,19.34-53.21,6-27-.61-55.6-18.49-80.48-18.69-26-45.4-45.05-69.06-60.26-29.54-19-58-30-84.52-32.64-21.52-2.15-43.53,5-64.81,11.9-7.94,2.58-16.16,5.25-24.09,7.33a230,230,0,0,1-39.05,7.17c-7.21.6-14.32-.14-21.2-.85a139,139,0,0,0-15.73-1.06,87,87,0,0,0-58.23,21.36c-22.06,20.08-36,53.79-38.15,92.48A96.46,96.46,0,0,0,620,751.82c3.77,8.31,9,13.83,14.57,19.68a126.05,126.05,0,0,1,9,10.18,45.39,45.39,0,0,1,8,16.19c2.45,9.23,2.58,19.08,2.7,28.61.06,4.61.12,9.38.45,14,1.3,18.73,7.47,30.53,18.86,36.08,10.19,5,23.55,4.63,36.46,4.31C713.25,880.8,716.53,880.71,719.79,880.71Z" transform="translate(0 -130.33)" style="fill: #416cb4"/>
    <path d="M891.47,952.82q-3,0-6-.2c-24.77-1.67-50.77-12.71-77.27-32.83-6.16-4.67-12.24-10.2-18.12-15.55-15-13.61-30.44-27.69-49.52-30.15-6.58-.86-13.87-.67-20.92-.49-24.05.61-48.9,1.24-51.63-38.23-.3-4.35-.36-8.82-.41-13.13-.11-8.81-.22-17.91-2.45-26.37a41.38,41.38,0,0,0-7.27-14.75h0a114.42,114.42,0,0,0-8.19-9.41c-5.14-5.49-10-10.68-13.53-18.53a91.41,91.41,0,0,1-7.19-41.65c2-36.16,14.88-67.68,35.33-86.48a80.12,80.12,0,0,1,54-20,129.26,129.26,0,0,1,14.56,1c6.29.66,12.79,1.34,19.35.79a210.21,210.21,0,0,0,35.8-6.65c7.28-1.93,14.84-4.41,22.15-6.81,19.64-6.45,40-13.11,59.89-11.1,24.54,2.5,50.81,12.75,78.09,30.47,21.82,14.18,46.45,31.95,63.71,56.22,16.57,23.31,22.66,50.09,17.13,75.42-3.82,17.55-11,33.84-17.83,49.59-4,9-8,18.38-11.45,27.84-3.83,10.64-7,21.83-10,32.66-3.42,12.25-7,24.92-11.54,36.85C963.78,928.7,929.42,952.82,891.47,952.82ZM728.55,872.73a94.61,94.61,0,0,1,12.06.65c19.3,2.49,34.86,16.65,49.91,30.33,5.87,5.34,11.94,10.87,18.07,15.51,26.39,20,52.26,31,76.89,32.69,40,2.69,77-21.79,92-60.9,4.57-11.89,8.1-24.55,11.51-36.79,3-10.83,6.16-22,10-32.7,3.42-9.49,7.51-18.84,11.47-27.89,6.87-15.72,14-32,17.78-49.45,5.49-25.13-.56-51.72-17-74.85-17.19-24.18-41.76-41.9-63.52-56-27.18-17.66-53.35-27.88-77.77-30.36-19.79-2-40,4.64-59.6,11.07-7.32,2.4-14.88,4.89-22.18,6.82a210.63,210.63,0,0,1-35.92,6.67c-6.63.55-13.17-.13-19.5-.79a141,141,0,0,0-14.48-1,79.39,79.39,0,0,0-53.56,19.86c-20.31,18.67-33.11,50-35.1,86a90.59,90.59,0,0,0,7.13,41.32c3.47,7.74,8.3,12.89,13.4,18.33a114.45,114.45,0,0,1,8.24,9.47,42.08,42.08,0,0,1,7.4,15c2.25,8.55,2.36,17.69,2.47,26.54.06,4.31.11,8.76.41,13.09,1.2,17.42,6.88,28.39,17.36,33.56,9.37,4.62,21.66,4.31,33.54,4C722.55,872.81,725.56,872.73,728.55,872.73Z" transform="translate(0 -130.33)" style="fill: #416cb4"/>
    <path d="M886.54,939.86c-1.84,0-3.69-.06-5.54-.19-22.8-1.56-46.72-11.83-71.1-30.51-5.66-4.34-11.26-9.49-16.67-14.47-13.77-12.66-28-25.76-45.56-28.05-6.06-.79-12.77-.62-19.26-.45-22.11.57-45,1.16-47.49-35.55-.27-4-.32-8.14-.37-12.13-.09-8.21-.2-16.7-2.25-24.6a38.75,38.75,0,0,0-6.7-13.76h0a106.16,106.16,0,0,0-7.54-8.74c-4.74-5.11-9.21-9.93-12.46-17.22A85.93,85.93,0,0,1,645,715.43c1.85-33.63,13.7-62.95,32.51-80.43a73.22,73.22,0,0,1,49.7-18.64c4.49,0,9,.47,13.36.93,5.8.61,11.8,1.24,17.84.73a189.86,189.86,0,0,0,32.93-6.19c6.7-1.8,13.64-4.1,20.36-6.33,18.08-6,36.78-12.2,55.13-10.32,22.57,2.31,46.74,11.85,71.84,28.36,36,23.6,50.22,40.34,58.63,52.29A89.06,89.06,0,0,1,1013.06,746c-3.52,16.33-10.07,31.46-16.41,46.1-3.64,8.41-7.4,17.11-10.54,25.91-3.52,9.88-6.39,20.28-9.16,30.33-3.15,11.41-6.41,23.2-10.64,34.31C953.08,917.42,921.47,939.86,886.54,939.86ZM736.65,865.39a87.08,87.08,0,0,1,11.1.6c17.77,2.31,32.08,15.48,45.93,28.22,5.4,5,11,10.1,16.62,14.43,24.27,18.6,48.08,28.82,70.74,30.37,36.82,2.51,70.83-20.26,84.66-56.63,4.22-11.08,7.47-22.86,10.61-34.26,2.78-10.06,5.65-20.47,9.18-30.37,3.15-8.83,6.91-17.53,10.56-26,6.32-14.61,12.86-29.72,16.36-46a88.35,88.35,0,0,0-15.66-69.6c-8.37-11.91-22.58-28.59-58.45-52.13-25-16.45-49.09-26-71.55-28.26-18.21-1.86-36.84,4.32-54.85,10.3-6.73,2.23-13.68,4.54-20.39,6.33a190.32,190.32,0,0,1-33,6.22c-6.11.51-12.14-.12-18-.74A118.92,118.92,0,0,0,727.2,617a72.34,72.34,0,0,0-49.26,18.47c-18.68,17.36-30.45,46.51-32.29,80a85.1,85.1,0,0,0,6.56,38.44c3.2,7.19,7.64,12,12.34,17a108.34,108.34,0,0,1,7.58,8.8h0a39.22,39.22,0,0,1,6.8,14c2.08,8,2.18,16.5,2.28,24.75,0,4,.1,8.1.37,12.1,1.11,16.2,6.33,26.4,16,31.21,8.61,4.29,19.91,4,30.84,3.72C731.12,865.46,733.9,865.39,736.65,865.39Z" transform="translate(0 -130.33)" style="fill: #416cb4"/>
    <path d="M882.05,927.76c-1.71,0-3.42-.06-5.14-.18-21-1.45-43-11-65.4-28.37-5.22-4-10.36-8.83-15.34-13.46-12.67-11.77-25.76-24-41.91-26.08-5.57-.74-11.73-.57-17.7-.42-20.36.53-41.41,1.09-43.7-33.06-.26-3.76-.31-7.62-.35-11.35-.1-7.61-.2-15.49-2.08-22.82a36.3,36.3,0,0,0-6.17-12.77h0a98.89,98.89,0,0,0-6.91-8.1c-4.37-4.76-8.49-9.25-11.48-16a80.66,80.66,0,0,1-6.09-36c1.7-31.27,12.6-58.54,29.91-74.8a66.75,66.75,0,0,1,45.74-17.33,111.11,111.11,0,0,1,12.33.86,85.59,85.59,0,0,0,16.37.68,173.44,173.44,0,0,0,30.3-5.76c6.16-1.66,12.56-3.81,18.74-5.88,16.63-5.58,33.83-11.36,50.71-9.61,20.76,2.15,43,11,66.1,26.36,18.46,12.26,39.3,27.62,53.93,48.62a83.64,83.64,0,0,1,14.5,65.23c-3.24,15.2-9.28,29.31-15.12,42.95-3.34,7.79-6.79,15.85-9.67,24-3.24,9.19-5.88,18.86-8.44,28.21-2.89,10.6-5.89,21.57-9.77,31.9C943.23,906.89,914.17,927.76,882.05,927.76ZM744.18,858.51a78,78,0,0,1,10.16.56c16.34,2.16,29.51,14.4,42.24,26.24,5,4.62,10.11,9.39,15.3,13.42C834.21,916,856.1,925.54,877,927c33.87,2.33,65.16-18.82,77.89-52.67,3.88-10.3,6.87-21.25,9.76-31.84,2.55-9.37,5.2-19,8.44-28.25,2.89-8.19,6.35-16.26,9.69-24.06,5.83-13.62,11.85-27.69,15.09-42.84a83,83,0,0,0-14.41-64.75c-14.57-20.92-35.36-36.24-53.77-48.46-23-15.29-45.16-24.13-65.82-26.26-16.76-1.74-33.89,4-50.45,9.57-6.2,2.08-12.6,4.23-18.78,5.9a174.41,174.41,0,0,1-30.4,5.78c-5.61.48-11.14-.12-16.49-.69a121.91,121.91,0,0,0-12.28-.85,66.39,66.39,0,0,0-45.32,17.17c-17.19,16.15-28,43.27-29.71,74.38a80,80,0,0,0,6,35.75c2.94,6.7,7,11.16,11.36,15.87a102.39,102.39,0,0,1,7,8.16h0a36.9,36.9,0,0,1,6.26,13c1.91,7.4,2,15.31,2.1,23,0,3.73.1,7.58.35,11.32,1,15.07,5.82,24.57,14.69,29,7.94,4,18.34,3.72,28.4,3.46C739.07,858.58,741.64,858.51,744.18,858.51Z" transform="translate(0 -130.33)" style="fill: #416cb4"/>
    <path d="M877.84,916.55c-1.55,0-3.12,0-4.69-.16C853.85,915,833.6,906.16,813,890c-4.79-3.75-9.51-8.2-14.08-12.49-11.66-11-23.72-22.29-38.59-24.28a106.81,106.81,0,0,0-16.28-.39c-18.72.5-38.08,1-40.21-30.74-.23-3.46-.27-7-.31-10.43-.09-7.13-.18-14.5-1.93-21.35a33.59,33.59,0,0,0-5.66-11.9h0a89.07,89.07,0,0,0-6.38-7.58c-4-4.41-7.8-8.58-10.54-14.88a76,76,0,0,1-5.6-33.51C675,693.36,685,668,700.89,652.89a61.21,61.21,0,0,1,41.44-16.11H743a103.08,103.08,0,0,1,11.31.8,78.7,78.7,0,0,0,15.09.63,158.48,158.48,0,0,0,27.88-5.35c5.65-1.55,11.52-3.54,17.2-5.46,15.31-5.19,31.15-10.56,46.69-8.94,19.09,2,39.55,10.24,60.8,24.51,17,11.4,36.18,25.69,49.62,45.22a78.39,78.39,0,0,1,13.34,60.66c-3,14.13-8.53,27.24-13.9,39.92-3.07,7.26-6.25,14.76-8.9,22.35-3,8.58-5.43,17.6-7.79,26.32-2.65,9.84-5.4,20-9,29.59C934.16,897.15,907.41,916.55,877.84,916.55ZM751,852.15a71.48,71.48,0,0,1,9.37.52c15,2,27.17,13.41,38.89,24.43,4.56,4.29,9.28,8.72,14,12.46,20.55,16.09,40.7,24.93,59.88,26.27,31.15,2.14,59.94-17.53,71.65-49,3.55-9.55,6.3-19.71,8.95-29.54,2.36-8.73,4.8-17.76,7.8-26.35,2.66-7.61,5.84-15.12,8.91-22.39,5.36-12.65,10.9-25.74,13.87-39.82a77.85,77.85,0,0,0-13.25-60.22c-13.39-19.45-32.52-33.7-49.47-45.07C900.47,629.23,880.1,621,861.1,619c-15.42-1.61-31.19,3.74-46.45,8.91-5.68,1.93-11.56,3.92-17.23,5.47a158.53,158.53,0,0,1-28,5.37,77.39,77.39,0,0,1-15.2-.64,97.5,97.5,0,0,0-11.26-.79,60.51,60.51,0,0,0-41.7,15.95c-15.81,15-25.77,40.23-27.33,69.18a75.28,75.28,0,0,0,5.55,33.26c2.7,6.21,6.46,10.34,10.43,14.72a94,94,0,0,1,6.43,7.62,34.21,34.21,0,0,1,5.76,12.1c1.76,6.92,1.85,14.32,1.94,21.48,0,3.42.08,7,.31,10.4.94,14,5.36,22.84,13.52,27,7.3,3.71,16.86,3.46,26.11,3.22C746.32,852.22,748.68,852.15,751,852.15Z" transform="translate(0 -130.33)" style="fill: #416cb4"/>
    <path d="M874,906.1c-1.43,0-2.86-.05-4.31-.15-17.75-1.25-36.38-9.51-55.36-24.55-4.41-3.49-8.77-7.64-13-11.64-10.72-10.18-21.81-20.7-35.47-22.55a96.17,96.17,0,0,0-15-.36c-17.23.46-35,.94-37-28.59-.22-3.26-.26-6.61-.3-9.84-.08-6.58-.17-13.39-1.76-19.72a31.58,31.58,0,0,0-5.21-11.06h0a82.55,82.55,0,0,0-5.87-7c-3.69-4.1-7.17-8-9.69-13.85a70.9,70.9,0,0,1-5.15-31.14c1.43-27,10.65-50.62,25.3-64.7a55.9,55.9,0,0,1,38.73-15,96.59,96.59,0,0,1,10.43.74,71.62,71.62,0,0,0,13.86.6,144.44,144.44,0,0,0,25.65-5c5.2-1.44,10.59-3.29,15.81-5.08,14.09-4.83,28.66-9.83,43-8.32,17.56,1.85,36.38,9.52,55.94,22.8,15.63,10.6,33.28,23.89,45.66,42.05a73.73,73.73,0,0,1,12.27,56.42c-2.74,13.11-7.83,25.27-12.76,37C956.92,794,954,801,951.54,808.07c-2.75,8-5,16.34-7.15,24.44-2.45,9.16-5,18.63-8.26,27.55C925.82,888.05,901.19,906.1,874,906.1ZM757.32,846.22a65,65,0,0,1,8.6.48c13.83,1.87,25,12.45,35.76,22.68,4.21,4,8.56,8.13,13,11.61,18.9,15,37.43,23.2,55.08,24.44,28.65,2,55.16-16.3,65.93-45.55,3.28-8.9,5.81-18.36,8.25-27.51,2.16-8.11,4.4-16.5,7.16-24.47,2.45-7.12,5.39-14.13,8.23-20.92,4.92-11.74,10-23.87,12.73-36.94a73.15,73.15,0,0,0-12.19-56c-12.33-18.1-29.93-31.35-45.52-41.92-19.49-13.23-38.24-20.87-55.71-22.71-14.18-1.5-28.69,3.48-42.73,8.29-5.22,1.79-10.63,3.65-15.84,5.09a145.37,145.37,0,0,1-25.75,5,71.8,71.8,0,0,1-14-.59,93.72,93.72,0,0,0-10.37-.74,55.43,55.43,0,0,0-38.37,14.85c-14.56,14-23.72,37.44-25.14,64.34a70.34,70.34,0,0,0,5.11,30.92c2.48,5.79,5.94,9.63,9.6,13.7a87.42,87.42,0,0,1,5.9,7.08,32.23,32.23,0,0,1,5.3,11.25c1.6,6.39,1.69,13.22,1.77,19.83,0,3.23.08,6.57.29,9.81.87,13,4.93,21.25,12.44,25.12,6.71,3.45,15.52,3.22,24,3C753,846.27,755.17,846.22,757.32,846.22Z" transform="translate(0 -130.33)" style="fill: #416cb4"/>
    <path d="M870.47,896.36c-1.32,0-2.64,0-4-.14-16.34-1.16-33.48-8.84-50.94-22.82-4.06-3.26-8.07-7.11-11.95-10.83-9.86-9.47-20.06-19.26-32.63-21a87.17,87.17,0,0,0-13.78-.33c-15.84.42-32.23.87-34-26.59-.2-3-.24-6.14-.27-9.15-.07-6.12-.15-12.45-1.62-18.34a29.24,29.24,0,0,0-4.8-10.26h0a78.83,78.83,0,0,0-5.4-6.55c-3.39-3.81-6.59-7.42-8.91-12.88a66.75,66.75,0,0,1-4.74-29c1.32-25.15,9.81-47.08,23.28-60.16a51.16,51.16,0,0,1,35.63-14h.12a86.28,86.28,0,0,1,9.43.69,64,64,0,0,0,12.8.55A130.87,130.87,0,0,0,802.28,651c4.8-1.34,9.78-3.07,14.59-4.74,13-4.49,26.35-9.13,39.49-7.72,16.18,1.73,33.5,8.87,51.47,21.2,14.38,9.87,30.61,22.23,42,39.11a69.18,69.18,0,0,1,11.29,52.45c-2.52,12.21-7.22,23.55-11.76,34.51-2.61,6.28-5.3,12.77-7.54,19.35-2.53,7.38-4.58,15.16-6.57,22.68-2.25,8.54-4.59,17.37-7.62,25.67C918.14,879.58,895.49,896.36,870.47,896.36ZM763.11,840.67a60.37,60.37,0,0,1,7.94.44c12.73,1.75,23,11.59,32.89,21.11,3.87,3.72,7.88,7.56,11.92,10.8,17.39,13.92,34.44,21.56,50.67,22.72,26.35,1.87,50.73-15.16,60.64-42.37,3-8.28,5.35-17.1,7.61-25.63,2-7.52,4-15.31,6.57-22.71,2.25-6.59,4.95-13.09,7.55-19.38,4.54-10.94,9.23-22.25,11.74-34.42a68.64,68.64,0,0,0-11.22-52.07c-11.34-16.82-27.53-29.15-41.87-39-17.9-12.29-35.14-19.4-51.24-21.12-13-1.4-26.38,3.22-39.28,7.7-4.82,1.67-9.81,3.4-14.62,4.74a130.67,130.67,0,0,1-23.68,4.64,64.84,64.84,0,0,1-12.89-.55,85.11,85.11,0,0,0-9.5-.68A50.5,50.5,0,0,0,721,668.71c-13.38,13-21.81,34.81-23.13,59.84a66.4,66.4,0,0,0,4.7,28.76c2.29,5.38,5.47,9,8.83,12.74a79.59,79.59,0,0,1,5.43,6.58,29.82,29.82,0,0,1,4.88,10.44c1.48,5.94,1.56,12.3,1.63,18.45,0,3,.07,6.1.27,9.11.8,12.13,4.54,19.77,11.44,23.36,6.18,3.21,14.27,3,22.1,2.78C759.15,840.72,761.14,840.67,763.11,840.67Z" transform="translate(0 -130.33)" style="fill: #416cb4"/>
  </g>
</svg>
