<svg xmlns="http://www.w3.org/2000/svg" width="1178.64" height="1344.58" viewBox="0 0 1178.64 1344.58">
  <title>background-footer-1</title>
  <g>
    <path d="M517.91,1159l-92.53-92.52L590.44,994Z" style="fill: none;stroke: #52ffff;stroke-miterlimit: 10;stroke-width: 3.25px"/>
    <path d="M425.38,1066.5,332.86,974l165.06-72.53Z" style="fill: none;stroke: #52ffff;stroke-miterlimit: 10;stroke-width: 3.25px"/>
    <path d="M550.46,478.81,643,571.34,477.92,643.87Z" style="fill: none;stroke: #52ffff;stroke-miterlimit: 10;stroke-width: 3.25px"/>
    <path d="M477.92,643.87l92.53,92.52L405.39,808.92Z" style="fill: none;stroke: #52ffff;stroke-miterlimit: 10;stroke-width: 3.25px"/>
    <path d="M385.4,551.35l92.53,92.52L312.87,716.4Z" style="fill: none;stroke: #52ffff;stroke-miterlimit: 10;stroke-width: 3.25px"/>
    <path d="M129.67,533.2l92.52,92.52L57.13,698.25Z" style="fill: none;stroke: #52ffff;stroke-miterlimit: 10;stroke-width: 3.25px"/>
    <path d="M367.25,295.61l92.53,92.52L294.72,460.66Z" style="fill: none;stroke: #52ffff;stroke-miterlimit: 10;stroke-width: 3.25px"/>
    <path d="M439.79,130.55l92.53,92.53L367.26,295.61Z" style="fill: none;stroke: #52ffff;stroke-miterlimit: 10;stroke-width: 3.25px"/>
    <path d="M274.73,203.09l92.53,92.52L202.2,368.14Z" style="fill: none;stroke: #52ffff;stroke-miterlimit: 10;stroke-width: 3.25px"/>
    <path d="M643,571.34l-92.52-92.53,165.06-72.53Z" style="fill: none;stroke: #52ffff;stroke-miterlimit: 10;stroke-width: 3.25px"/>
    <path d="M590.45,994l-92.53-92.53L663,828.92Z" style="fill: none;stroke: #52ffff;stroke-miterlimit: 10;stroke-width: 3.25px"/>
    <path d="M643,571.34l92.53,92.52h0L828,756.38l72.53-165h0L808,498.81Z" style="fill: none;stroke: #52ffff;stroke-miterlimit: 10;stroke-width: 3.25px"/>
    <path d="M570.46,736.4,497.92,901.45,663,828.92l72.54-165L643,571.35Z" style="fill: none;stroke: #52ffff;stroke-miterlimit: 10;stroke-width: 3.25px"/>
    <path d="M736,664.32l92.53,92.52L663.43,829.37Z" style="fill: none;stroke: #52ffff;stroke-miterlimit: 10;stroke-width: 3.25px"/>
    <path d="M900.56,591.33l92.53,92.52L828,756.38Z" style="fill: none;stroke: #52ffff;stroke-miterlimit: 10;stroke-width: 3.25px"/>
    <path d="M663.44,829.38h0L590.44,994,755,921h0l73-164.59Z" style="fill: none;stroke: #52ffff;stroke-miterlimit: 10;stroke-width: 3.25px"/>
    <g>
      <path d="M846.62,1012.57h0l73-164.59L755,921h0l-73,164.59Z" style="fill: none;stroke: #52ffff;stroke-miterlimit: 10;stroke-width: 3.25px"/>
      <path d="M517.43,1158.56l183.2,183.19,73-164.59,73-164.59-164.6,73Z" style="fill: none;stroke: #52ffff;stroke-miterlimit: 10;stroke-width: 3.25px"/>
    </g>
    <g>
      <path d="M458.41,386.76h0l-73,164.59,164.6-73h0l73-164.59Z" style="fill: none;stroke: #52ffff;stroke-miterlimit: 10;stroke-width: 3.25px"/>
      <path d="M787.6,240.77,604.4,57.57l-73,164.59-73,164.59,164.6-73Z" style="fill: none;stroke: #52ffff;stroke-miterlimit: 10;stroke-width: 3.25px"/>
    </g>
    <g>
      <path d="M952.2,167.78h0l73-164.59-164.59,73h0l-73,164.59Z" style="fill: none;stroke: #52ffff;stroke-miterlimit: 10;stroke-width: 3.25px"/>
      <path d="M623,313.77,806.2,497l73-164.59,73-164.59-164.6,73Z" style="fill: none;stroke: #52ffff;stroke-miterlimit: 10;stroke-width: 3.25px"/>
    </g>
    <g>
      <path d="M76.2,954.91h0l-73,164.59,164.6-73h0l73-164.59Z" style="fill: none;stroke: #52ffff;stroke-miterlimit: 10;stroke-width: 3.25px"/>
      <path d="M405.39,808.92l-183.2-183.2-73,164.59-73,164.59,164.6-73Z" style="fill: none;stroke: #52ffff;stroke-miterlimit: 10;stroke-width: 3.25px"/>
    </g>
    <g>
      <path d="M846.63,1012.57h0l-73,164.59,164.6-73h0l73-164.59Z" style="fill: none;stroke: #52ffff;stroke-miterlimit: 10;stroke-width: 3.25px"/>
      <path d="M1175.82,866.58l-183.2-183.2L919.62,848l-73,164.59,164.6-73Z" style="fill: none;stroke: #52ffff;stroke-miterlimit: 10;stroke-width: 3.25px"/>
    </g>
  </g>
</svg>
