<svg xmlns="http://www.w3.org/2000/svg" xmlns:xlink="http://www.w3.org/1999/xlink" width="1920" height="494.828" viewBox="0 0 1920 494.828">
  <defs>
    <clipPath id="clip-path">
      <path id="Path_239" data-name="Path 239" d="M0,0H1920V494.828H0Z" transform="translate(0 -137.828)" fill="#fff"/>
    </clipPath>
  </defs>
  <g id="Mask_Group_21" data-name="Mask Group 21" transform="translate(0 137.828)" clip-path="url(#clip-path)">
    <g id="Group_339" data-name="Group 339" transform="translate(1977.519 16.719) rotate(135)">
      <path id="Path_215" data-name="Path 215" d="M164.342,967.84C125.2,924.662,78.042,898.2,49.23,844.832,19.278,789.363,7.042,724.254,11.23,661.6c9.613-144.281,69.723-291.24,186.9-380.931,79.79-61.071,186.057-87.783,285.541-88.071,60.33-.165,118.861,12.126,180.166,7.855,64.12-4.45,127.664-15.615,190.37-29.43,140.71-30.982,289.358-91.3,434.765-79.035,145.682,12.291,285.8,65.219,413.575,134.311,119.754,64.738,248.475,143.526,337.672,247.912,80.133,93.77,122.363,210.8,90.667,331.877-31.916,121.868-105.732,227.175-155.364,341.764-43.4,100.211-68.364,207.8-114.178,306.937-85.722,185.521-292.173,281.036-490.316,269.953-146.918-8.226-285.952-66.812-409.153-144.583-115-72.607-217.74-186.9-359.919-202.194-153.235-16.494-364.795,54.589-383.39-169.523-4.848-58.462,2.445-118.819-15.258-174.755C194.829,1006.952,180.89,986.092,164.342,967.84Z" transform="translate(0 0)" fill="none" stroke="#006cff" stroke-miterlimit="10" stroke-width="1"/>
      <path id="Path_216" data-name="Path 216" d="M164.342,967.84C125.2,924.662,78.042,898.2,49.23,844.832,19.278,789.363,7.042,724.254,11.23,661.6c9.613-144.281,69.723-291.24,186.9-380.931,79.79-61.071,186.057-87.783,285.541-88.071,60.33-.165,118.861,12.126,180.166,7.855,64.12-4.45,127.664-15.615,190.37-29.43,140.71-30.982,289.358-91.3,434.765-79.035,145.682,12.291,285.8,65.219,413.575,134.311,119.754,64.738,248.475,143.526,337.672,247.912,80.133,93.77,122.363,210.8,90.667,331.877-31.916,121.868-105.732,227.175-155.364,341.764-43.4,100.211-68.364,207.8-114.178,306.937-85.722,185.521-292.173,281.036-490.316,269.953-146.918-8.226-285.952-66.812-409.153-144.583-115-72.607-217.74-186.9-359.919-202.194-153.235-16.494-364.795,54.589-383.39-169.523-4.848-58.462,2.445-118.819-15.258-174.755C194.829,1006.952,180.89,986.092,164.342,967.84Z" transform="translate(0 0)" fill="none" stroke="#006cff" stroke-miterlimit="10" stroke-width="1"/>
      <path id="Path_217" data-name="Path 217" d="M158.232,910.573c-36.008-40.142-79.378-64.752-105.9-114.4-27.562-51.568-38.81-112.118-34.965-170.388,8.858-134.173,64.148-270.86,171.953-354.275,73.4-56.787,171.157-81.63,262.688-81.891,55.51-.165,109.357,11.261,165.76,7.306,59-4.147,117.446-14.53,175.139-27.384,129.449-28.812,266.2-84.9,399.993-73.5,134.008,11.44,262.922,60.659,380.478,124.917,110.168,60.206,228.589,133.473,310.658,230.553,73.72,87.206,112.571,196.055,83.416,308.64-29.361,113.34-97.272,211.285-142.935,317.854-39.936,93.194-62.9,193.24-105.045,285.445-78.87,172.53-268.8,261.37-451.094,251.042-135.162-7.649-263.073-62.115-376.413-134.448C786.169,1412.522,691.643,1306.24,560.834,1292c-140.971-15.34-335.612,50.771-352.709-157.643-4.463-54.37,2.238-110.511-14.049-162.519C186.289,946.952,173.462,927.561,158.232,910.573Z" transform="translate(79.033 53.064)" fill="none" stroke="#006cff" stroke-miterlimit="10" stroke-width="0.925"/>
      <path id="Path_218" data-name="Path 218" d="M152.624,857.337C119.486,820,79.591,797.117,55.187,750.946,29.836,702.976,19.481,646.67,23.024,592.479,31.168,467.7,82.049,340.571,181.217,263.006c67.54-52.818,157.478-75.917,241.677-76.164,51.06-.151,100.609,10.478,152.493,6.8,54.287-3.859,108.053-13.513,161.131-25.461,119.094-26.793,244.918-78.966,367.995-68.364,123.3,10.63,241.9,56.416,350.045,116.169,101.365,55.99,210.3,124.135,285.8,214.416,67.828,81.108,103.576,182.336,76.741,287.037-27.013,105.4-89.485,196.495-131.5,295.607-36.736,86.671-57.872,179.713-96.641,265.463-72.566,160.445-247.307,243.064-415.017,233.478-124.34-7.114-242.02-57.776-346.3-125.055-97.341-62.788-184.3-161.639-304.63-174.879-129.71-14.255-308.763,47.215-324.5-146.615-4.106-50.552,2.06-102.766-12.923-151.134C178.429,891.162,166.632,873.117,152.624,857.337Z" transform="translate(151.741 102.414)" fill="none" stroke="#006cff" stroke-miterlimit="10" stroke-width="0.856"/>
      <path id="Path_219" data-name="Path 219" d="M147.454,807.81c-30.488-34.731-67.2-56-89.65-98.948-23.319-44.605-32.836-96.97-29.581-147.371,7.485-116.046,54.3-234.261,145.531-306.4,62.129-49.124,144.871-70.616,222.354-70.85,46.968-.137,92.548,9.75,140.285,6.331,49.934-3.584,99.415-12.566,148.25-23.676,109.563-24.926,225.307-73.445,338.537-63.571,113.436,9.888,222.546,52.461,322.057,108.025,93.248,52.077,193.473,115.441,262.935,199.42,62.39,75.423,95.281,169.564,70.6,266.946-24.857,98.014-82.331,182.734-120.976,274.9-33.8,80.614-53.244,167.147-88.909,246.882-66.757,149.225-227.518,226.062-381.81,217.135-114.411-6.619-222.67-53.738-318.61-116.292-89.54-58.394-169.55-150.323-280.253-162.629-119.328-13.28-284.071,43.905-298.546-136.357-3.777-47.022,1.909-95.583-11.893-140.559C171.185,839.273,160.336,822.491,147.454,807.81Z" transform="translate(218.642 148.315)" fill="none" stroke="#006cff" stroke-miterlimit="10" stroke-width="0.791"/>
      <path id="Path_220" data-name="Path 220" d="M142.706,761.766c-28.043-32.3-61.827-52.09-82.468-92.026-21.465-41.474-30.227-90.186-27.233-137.057C39.9,424.753,82.967,314.819,166.9,247.732c57.158-45.69,133.281-65.672,204.556-65.878,43.218-.137,85.16,9.064,129.078,5.878,45.937-3.337,91.449-11.7,136.384-22.028,100.788-23.168,207.289-68.3,311.455-59.121,104.359,9.2,204.734,48.794,296.28,100.472,85.791,48.437,178,107.366,241.91,185.453,57.4,70.149,87.659,157.7,64.944,248.255-22.852,91.161-75.739,169.948-111.294,255.671-31.092,74.956-48.973,155.432-81.795,229.592-61.415,138.788-209.321,210.241-351.268,201.946C901.9,1321.805,802.312,1278,714.048,1219.809c-82.385-54.3-155.982-139.8-257.841-151.244-109.783-12.346-261.343,40.829-274.664-126.812-3.474-43.727,1.758-88.9-10.932-130.727C164.542,791.018,154.558,775.417,142.706,761.766Z" transform="translate(280.177 190.995)" fill="none" stroke="#006cff" stroke-miterlimit="10" stroke-width="0.732"/>
      <path id="Path_221" data-name="Path 221" d="M138.321,718.919c-25.8-30.034-56.869-48.437-75.876-85.572-19.735-38.576-27.8-83.882-25.036-127.457C43.754,405.514,83.36,303.27,160.6,240.88c52.584-42.49,122.61-61.071,188.186-61.277,39.758-.11,78.334,8.432,118.737,5.466,42.271-3.09,84.143-10.863,125.48-20.476,92.74-21.547,190.7-63.516,286.543-54.974,96.009,8.542,188.364,45.374,272.576,93.427,78.925,45.045,163.768,99.854,222.56,172.475,52.8,65.233,80.641,146.657,59.753,230.883-21.039,84.775-69.682,158.041-102.395,237.763-28.606,69.723-45.059,144.556-75.258,213.537-56.5,129.051-192.567,195.506-323.155,187.788-96.833-5.713-188.461-46.473-269.665-100.582-75.793-50.5-143.512-130.012-237.213-140.655-100.994-11.481-240.427,37.972-252.691-117.941-3.186-40.664,1.607-82.66-10.053-121.566C158.412,746.138,149.225,731.622,138.321,718.919Z" transform="translate(336.803 230.697)" fill="none" stroke="#006cff" stroke-miterlimit="10" stroke-width="0.677"/>
      <path id="Path_222" data-name="Path 222" d="M134.3,679.1C110.572,651.162,81.98,634.05,64.5,599.512c-18.155-35.885-25.571-78-23.044-118.545,5.837-93.344,42.285-188.433,113.34-246.456,48.382-39.51,112.8-56.8,173.134-56.979,36.571-.11,72.072,7.842,109.247,5.081,38.879-2.884,77.4-10.108,115.427-19.048,85.324-20.037,175.455-59.066,263.623-51.128,88.332,7.951,173.3,42.2,250.782,86.9,72.607,41.887,150.653,92.85,204.748,160.39,48.574,60.673,74.187,136.4,54.974,214.719-19.35,78.842-64.12,146.986-94.21,221.132-26.313,64.835-41.447,134.435-69.229,198.582-51.98,120.015-177.172,181.827-297.31,174.645-89.087-5.315-173.382-43.219-248.09-93.537-69.737-46.981-132.031-120.92-218.234-130.822-92.919-10.67-221.2,35.322-232.476-109.673-2.939-37.821,1.483-76.879-9.256-113.066C152.788,704.406,144.342,690.906,134.3,679.1Z" transform="translate(388.887 267.609)" fill="none" stroke="#006cff" stroke-miterlimit="10" stroke-width="0.626"/>
      <path id="Path_223" data-name="Path 223" d="M130.6,642.055c-21.836-25.983-48.135-41.9-64.216-74.022-16.713-33.358-23.539-72.539-21.2-110.236,5.37-86.808,38.906-175.249,104.262-229.207,44.509-36.75,103.8-52.818,159.291-53,33.646-.1,66.3,7.293,100.5,4.738,35.775-2.692,71.22-9.407,106.2-17.716,78.5-18.649,161.42-54.933,242.542-47.558,81.259,7.4,159.429,39.249,230.7,80.82,66.812,38.947,138.609,86.354,188.378,149.17,44.688,56.416,68.254,126.84,50.566,199.681-17.8,73.335-58.97,136.7-86.657,205.641-24.211,60.3-38.137,125.041-63.694,184.684-47.833,111.623-163,169.111-273.524,162.436-81.96-4.958-159.525-40.2-228.246-87C511.341,966.8,454.032,898.042,374.723,888.827c-85.489-9.916-203.5,32.85-213.881-102-2.705-35.171,1.373-71.5-8.515-105.142C147.6,665.595,139.83,653.042,130.6,642.055Z" transform="translate(436.809 301.943)" fill="none" stroke="#006cff" stroke-miterlimit="10" stroke-width="0.579"/>
      <path id="Path_224" data-name="Path 224" d="M127.188,607.6C107.1,583.439,82.9,568.635,68.108,538.765c-15.367-31.037-21.643-67.471-19.5-102.532C53.551,355.509,84.4,273.261,144.533,223.08c40.952-34.182,95.487-49.124,146.547-49.288,30.955-.1,60.989,6.784,92.466,4.408,32.9-2.5,65.507-8.748,97.7-16.48,72.209-17.331,148.5-51.087,223.137-44.221,74.763,6.88,146.67,36.489,212.246,75.148,61.456,36.228,127.513,80.312,173.3,138.733,41.117,52.474,62.8,117.968,46.528,185.714-16.37,68.185-54.26,127.128-79.735,191.249-22.275,56.073-35.088,116.279-58.6,171.748C954.132,983.9,848.167,1037.362,746.486,1031.155c-75.409-4.6-146.753-37.382-209.98-80.9C477.481,909.616,424.745,845.674,351.781,837.1c-78.636-9.228-187.225,30.542-196.755-94.855-2.5-32.726,1.25-66.5-7.842-97.794A99.916,99.916,0,0,0,127.188,607.6Z" transform="translate(480.9 333.876)" fill="none" stroke="#006cff" stroke-miterlimit="10" stroke-width="0.536"/>
      <path id="Path_225" data-name="Path 225" d="M124.063,575.572C105.578,553.1,83.317,539.33,69.707,511.548,55.562,482.694,49.794,448.8,51.758,416.2c4.546-75.079,32.932-151.56,88.25-198.239,37.684-31.779,87.851-45.69,134.819-45.828,28.483-.1,56.128,6.3,85.077,4.093,30.268-2.321,60.275-8.144,89.884-15.327,66.441-16.123,136.618-47.517,205.284-41.131,68.776,6.4,134.929,33.948,195.272,69.9,56.539,33.688,117.309,74.681,159.429,129.01,37.835,48.808,57.776,109.714,42.806,172.709-15.065,63.42-49.92,118.229-73.349,177.872-20.49,52.145-32.287,108.135-53.916,159.731C884.841,925.535,787.362,975.235,693.8,969.467c-69.366-4.285-135.011-34.759-193.171-75.244-54.3-37.78-102.82-97.258-169.948-105.224-72.346-8.583-172.242,28.414-181.017-88.208-2.294-30.433,1.154-61.841-7.21-90.955A93.28,93.28,0,0,0,124.063,575.572Z" transform="translate(521.462 363.565)" fill="none" stroke="#006cff" stroke-miterlimit="10" stroke-width="0.496"/>
      <path id="Path_226" data-name="Path 226" d="M121.17,545.768c-17-20.9-37.478-33.7-50-59.533-13.005-26.849-18.32-58.353-16.507-88.675,4.175-69.833,30.282-140.957,81.191-184.368,34.649-29.554,80.82-42.49,124.025-42.628,26.217-.082,51.637,5.878,78.265,3.8,27.865-2.156,55.455-7.553,82.7-14.241,61.113-15,125.686-44.193,188.859-38.247,63.282,5.947,124.134,31.559,179.644,65,52.021,31.339,107.929,69.462,146.685,119.987,34.8,45.388,53.147,102.024,39.387,160.624-13.871,58.984-45.938,109.948-67.485,165.4-18.856,48.506-29.705,100.568-49.6,148.552C821.1,871.231,731.4,917.47,645.339,912.1c-63.818-3.983-124.217-32.342-177.735-69.985-49.948-35.129-94.581-90.447-156.339-97.849C244.7,736.275,152.8,770.69,144.723,662.225c-2.1-28.3,1.057-57.514-6.633-84.583A87.185,87.185,0,0,0,121.17,545.768Z" transform="translate(558.784 391.186)" fill="none" stroke="#006cff" stroke-miterlimit="10" stroke-width="0.459"/>
      <path id="Path_227" data-name="Path 227" d="M118.527,518.05c-15.642-19.433-34.484-31.339-46.006-55.358-11.975-24.967-16.864-54.274-15.189-82.468,3.845-64.944,27.865-131.1,74.695-171.459,31.888-27.493,74.352-39.524,114.109-39.647,24.116-.069,47.5,5.452,72,3.543,25.626-2,51.019-7.031,76.082-13.252,56.224-13.939,115.634-41.09,173.752-35.569,58.215,5.535,114.205,29.348,165.279,60.454,47.846,29.142,99.291,64.6,134.942,111.582,32.026,42.2,48.9,94.883,36.228,149.376C891.678,500.1,862.179,547.508,842.334,599.09c-17.345,45.1-27.315,93.523-45.622,138.142-34.264,83.512-116.773,126.5-195.959,121.511-58.709-3.708-114.274-30.076-163.507-65.082-45.965-32.671-87.013-84.116-143.841-91.01-61.236-7.416-145.778,24.569-153.207-76.3-1.936-26.313.975-53.477-6.111-78.65A81.421,81.421,0,0,0,118.527,518.05Z" transform="translate(593.11 416.871)" fill="none" stroke="#006cff" stroke-miterlimit="10" stroke-width="0.424"/>
      <path id="Path_228" data-name="Path 228" d="M116.078,492.286c-14.392-18.073-31.724-29.142-42.326-51.486-11.014-23.223-15.5-50.469-13.967-76.7,3.529-60.4,25.64-121.91,68.721-159.456,29.334-25.571,68.391-36.75,104.977-36.873,22.179-.069,43.7,5.081,66.235,3.3,23.58-1.868,46.94-6.537,70-12.319,51.733-12.978,106.391-38.219,159.854-33.083,53.56,5.136,105.073,27.3,152.054,56.224,44.029,27.1,91.353,60.069,124.148,103.768,29.458,39.249,44.99,88.25,33.33,138.925-11.728,51-38.865,95.089-57.116,143.059C766.029,609.595,756.855,654.625,740,696.127c-31.518,77.647-107.421,117.638-180.276,113-54.013-3.447-105.128-27.961-150.42-60.522-42.284-30.391-80.064-78.224-132.333-84.638C220.629,657.057,142.844,686.816,136.019,593c-1.785-24.473.892-49.742-5.617-73.143A75.893,75.893,0,0,0,116.078,492.286Z" transform="translate(624.7 440.754)" fill="none" stroke="#006cff" stroke-miterlimit="10" stroke-width="0.392"/>
      <path id="Path_229" data-name="Path 229" d="M113.832,468.316c-13.239-16.809-29.183-27.1-38.934-47.888C64.763,398.839,60.629,373.5,62.044,349.111c3.255-56.169,23.594-113.381,63.228-148.3,26.985-23.772,62.925-34.168,96.585-34.278,20.394-.069,40.2,4.71,60.934,3.063,21.685-1.744,43.177-6.084,64.4-11.467,47.6-12.058,97.876-35.541,147.055-30.762,49.289,4.779,96.682,25.393,139.9,52.282,40.5,25.2,84.047,55.88,114.219,96.517,27.1,36.5,41.392,82.056,30.666,129.188C768.232,452.8,743.265,493.791,726.47,538.4c-14.681,39.016-23.113,80.9-38.618,119.493A166.945,166.945,0,0,1,522,762.975c-49.687-3.2-96.723-26-138.39-56.278-38.906-28.263-73.651-72.759-121.745-78.719-51.829-6.413-123.393,21.259-129.683-65.988-1.634-22.756.824-46.253-5.164-68.034A70.965,70.965,0,0,0,113.832,468.316Z" transform="translate(653.754 462.967)" fill="none" stroke="#006cff" stroke-miterlimit="10" stroke-width="0.363"/>
      <path id="Path_230" data-name="Path 230" d="M111.777,446.037C99.6,430.395,84.914,420.823,75.947,401.5c-9.311-20.078-13.129-43.658-11.824-66.345,2.994-52.227,21.7-105.443,58.16-137.909,24.83-22.111,57.9-31.779,88.868-31.888,18.773-.055,36.984,4.394,56.059,2.856,19.954-1.621,39.73-5.658,59.245-10.657,43.781-11.22,90.048-33.056,135.3-28.62,45.333,4.449,88.936,23.607,128.694,48.629,37.271,23.443,77.318,51.953,105.086,89.747,24.94,33.948,38.082,76.329,28.208,120.165-9.929,44.111-32.9,82.248-48.341,123.736-13.514,36.27-21.273,75.231-35.528,111.115-26.683,67.169-90.927,101.749-152.59,97.739-45.718-2.98-88.991-24.2-127.32-52.351-35.789-26.285-67.76-67.664-112.008-73.2-47.682-5.974-113.519,19.762-119.314-61.374-1.511-21.163.769-43.026-4.752-63.269A65.93,65.93,0,0,0,111.777,446.037Z" transform="translate(680.488 483.625)" fill="none" stroke="#006cff" stroke-miterlimit="10" stroke-width="0.336"/>
      <path id="Path_231" data-name="Path 231" d="M109.869,425.3c-11.206-14.53-24.706-23.443-32.96-41.419-8.57-18.663-12.071-40.6-10.877-61.689,2.76-48.574,19.968-98.055,53.518-128.254,22.838-20.572,53.257-29.568,81.74-29.65,17.276-.069,34.031,4.078,51.582,2.637,18.361-1.5,36.544-5.26,54.507-9.9,40.28-10.437,82.839-30.749,124.478-26.615,41.694,4.134,81.809,21.959,118.394,45.223,34.292,21.795,71.138,48.327,96.682,83.47,22.934,31.573,35.033,70.973,25.956,111.747-9.133,41.021-30.268,76.48-44.482,115.07-12.429,33.742-19.57,69.957-32.685,103.342-24.541,62.459-83.649,94.622-140.381,90.886-42.065-2.76-81.864-22.481-117.144-48.67-32.919-24.445-62.335-62.926-103.04-68.089-43.864-5.548-104.441,18.389-109.756-57.075-1.387-19.68.7-40-4.381-58.833A61.7,61.7,0,0,0,109.869,425.3Z" transform="translate(705.083 502.837)" fill="none" stroke="#006cff" stroke-miterlimit="10" stroke-width="0.31"/>
      <path id="Path_232" data-name="Path 232" d="M108.126,406.021C97.813,392.508,85.4,384.226,77.8,367.513c-7.9-17.373-11.11-37.753-10.012-57.377,2.541-45.182,18.361-91.2,49.234-119.286,21.012-19.117,49-27.48,75.2-27.577,15.889-.055,31.312,3.8,47.448,2.458,16.892-1.387,33.633-4.889,50.154-9.215,37.052-9.7,76.206-28.579,114.507-24.747,38.371,3.845,75.286,20.421,108.932,42.065,31.545,20.27,65.452,44.935,88.95,77.62,21.094,29.361,32.218,66.016,23.868,103.919-8.4,38.164-27.837,71.138-40.911,107.023-11.44,31.38-18,65.068-30.076,96.118-22.577,58.092-76.961,88-129.147,84.528-38.7-2.582-75.313-20.93-107.764-45.279-30.3-22.728-57.35-58.517-94.8-63.31-40.362-5.163-96.091,17.1-100.98-53.078-1.277-18.307.632-37.217-4.024-54.727A58,58,0,0,0,108.126,406.021Z" transform="translate(727.714 520.702)" fill="none" stroke="#006cff" stroke-miterlimit="10" stroke-width="0.287"/>
      <path id="Path_233" data-name="Path 233" d="M106.5,388.094c-9.476-12.58-20.9-20.284-27.892-35.83-7.251-16.136-10.217-35.1-9.2-53.353C71.733,256.9,86.3,214.094,114.7,187.987c19.323-17.784,45.072-25.571,69.188-25.653,14.612-.055,28.8,3.529,43.658,2.293,15.532-1.3,30.927-4.559,46.13-8.569,34.1-9.023,70.122-26.588,105.347-23.017,35.308,3.571,69.257,18.993,100.225,39.112,29.018,18.856,60.206,41.79,81.822,72.2,19.419,27.3,29.65,61.387,21.973,96.641-7.732,35.487-25.626,66.153-37.643,99.524-10.52,29.183-16.576,60.522-27.672,89.389-20.778,54.026-70.808,81.836-118.82,78.609-35.6-2.39-69.284-19.46-99.14-42.106-27.864-21.135-52.763-54.424-87.22-58.874-37.134-4.807-88.4,15.89-92.905-49.371-1.181-17.029.591-34.607-3.694-50.895A53.99,53.99,0,0,0,106.5,388.094Z" transform="translate(748.534 537.324)" fill="none" stroke="#006cff" stroke-miterlimit="10" stroke-width="0.266"/>
      <path id="Path_234" data-name="Path 234" d="M105.036,371.422C96.315,359.734,85.8,352.566,79.368,338.1c-6.674-15.01-9.393-32.644-8.473-49.618,2.156-39.071,15.546-78.883,41.68-103.164,17.785-16.549,41.474-23.772,63.653-23.855,13.445-.041,26.491,3.282,40.17,2.129,14.3-1.209,28.455-4.23,42.436-7.979,31.367-8.391,64.5-24.72,96.929-21.4,32.479,3.323,63.708,17.661,92.191,36.379,26.7,17.524,55.4,38.865,75.285,67.142,17.867,25.393,27.274,57.089,20.215,89.87-7.114,33.015-23.58,61.525-34.635,92.562-9.682,27.151-15.244,56.278-25.461,83.127-19.1,50.25-65.136,76.11-109.3,73.116-32.754-2.225-63.749-18.1-91.216-39.153C257.2,517.6,234.293,486.643,202.6,482.5c-34.168-4.463-81.328,14.791-85.475-45.91-1.071-15.834.549-32.177-3.392-47.325A50.329,50.329,0,0,0,105.036,371.422Z" transform="translate(767.678 552.774)" fill="none" stroke="#006cff" stroke-miterlimit="10" stroke-width="0.246"/>
      <path id="Path_235" data-name="Path 235" d="M103.674,355.915c-8.034-10.863-17.7-17.537-23.608-30.982-6.139-13.967-8.652-30.364-7.8-46.143,1.978-36.338,14.31-73.349,38.343-95.94,16.356-15.381,38.151-22.111,58.558-22.18,12.374-.054,24.376,3.049,36.956,1.978,13.143-1.126,26.176-3.942,39.044-7.416,28.853-7.8,59.341-23,89.17-19.913,29.883,3.1,58.613,16.425,84.83,33.839,24.555,16.3,50.95,36.146,69.257,62.431,16.425,23.621,25.091,53.106,18.595,83.594-6.551,30.694-21.685,57.226-31.875,86.08-8.9,25.242-14.022,52.337-23.415,77.3C434.15,525.3,391.81,549.361,351.16,546.559c-30.131-2.074-58.641-16.823-83.91-36.407-23.594-18.292-44.66-47.077-73.816-50.937C162,455.069,118.6,472.977,114.8,416.52c-1-14.722.494-29.925-3.131-44.015A47.272,47.272,0,0,0,103.674,355.915Z" transform="translate(785.299 567.141)" fill="none" stroke="#006cff" stroke-miterlimit="10" stroke-width="0.227"/>
      <path id="Path_236" data-name="Path 236" d="M102.421,341.5c-7.388-10.122-16.288-16.315-21.726-28.813-5.644-12.992-7.951-28.249-7.169-42.93,1.827-33.784,13.156-68.213,35.267-89.225,15.065-14.31,35.116-20.559,53.889-20.627,11.385-.041,22.426,2.843,33.99,1.84a203.768,203.768,0,0,0,35.926-6.894c26.546-7.265,54.6-21.383,82.042-18.512,27.48,2.884,53.916,15.272,78.032,31.463,22.591,15.161,46.885,33.619,63.722,58.064,15.12,21.973,23.085,49.384,17.1,77.744-6.015,28.538-19.941,53.216-29.307,80.051-8.2,23.47-12.909,48.67-21.547,71.893C406.46,499.02,367.5,521.391,330.117,518.8c-27.727-1.937-53.958-15.656-77.208-33.866-21.7-17.015-41.09-43.781-67.911-47.366-28.922-3.859-68.831,12.786-72.346-39.7-.906-13.706.467-27.837-2.884-40.938A43.642,43.642,0,0,0,102.421,341.5Z" transform="translate(801.508 580.512)" fill="none" stroke="#006cff" stroke-miterlimit="10" stroke-width="0.21"/>
      <path id="Path_237" data-name="Path 237" d="M101.263,328.083c-6.8-9.407-14.983-15.161-19.982-26.793-5.2-12.085-7.32-26.272-6.592-39.909,1.662-31.436,12.1-63.448,32.438-82.99,13.857-13.308,32.3-19.116,49.577-19.185,10.465-.041,20.627,2.637,31.271,1.717a185.408,185.408,0,0,0,33.056-6.413c24.418-6.757,50.222-19.886,75.464-17.221,25.3,2.678,49.618,14.214,71.8,29.265,20.792,14.1,43.136,31.257,58.627,54,13.912,20.435,21.231,45.924,15.738,72.305-5.548,26.547-18.361,49.481-26.972,74.448-7.54,21.822-11.865,45.265-19.817,66.867-14.887,40.4-50.731,61.209-85.132,58.805-25.5-1.8-49.632-14.557-71.014-31.5-19.968-15.807-37.808-40.7-62.486-44.042-26.6-3.6-63.324,11.893-66.551-36.928-.851-12.731.412-25.887-2.65-38.069A41.19,41.19,0,0,0,101.263,328.083Z" transform="translate(816.427 592.94)" fill="none" stroke="#006cff" stroke-miterlimit="10" stroke-width="0.194"/>
      <path id="Path_238" data-name="Path 238" d="M100.21,315.62c-6.248-8.748-13.774-14.1-18.389-24.926-4.779-11.234-6.729-24.431-6.07-37.121,1.538-29.224,11.138-59,29.856-77.167,12.744-12.373,29.719-17.785,45.608-17.853,9.627-.028,18.979,2.458,28.771,1.593a167.443,167.443,0,0,0,30.405-5.961c22.467-6.276,46.212-18.5,69.435-16.013,23.264,2.5,45.649,13.211,66.057,27.219,19.117,13.115,39.675,29.073,53.93,50.222,12.786,18.993,19.542,42.71,14.475,67.238-5.1,24.678-16.892,46.02-24.816,69.229-6.935,20.312-10.918,42.106-18.238,62.184-13.692,37.588-46.665,56.938-78.307,54.7-23.47-1.676-45.663-13.541-65.342-29.293-18.361-14.708-34.773-37.862-57.487-40.966-24.473-3.337-58.256,11.055-61.222-34.347-.783-11.838.384-24.074-2.444-35.4A38.084,38.084,0,0,0,100.21,315.62Z" transform="translate(830.141 604.498)" fill="none" stroke="#006cff" stroke-miterlimit="10" stroke-width="0.18"/>
    </g>
  </g>
</svg>
