<svg xmlns="http://www.w3.org/2000/svg" width="1649.7" height="664.75" viewBox="0 0 1649.7 664.75">
  <title>background-3</title>
  <g>
    <path d="M842.68,1099.74c-5.27,0-10.32,0-15-.16l-418.56-9.82c-32-.75-64-5.63-71.33-10.88l-271.66-195c-7.28-5.23-15.6-13.86-18.53-19.23L6,788.33c-3-5.49.5-14.3,7.77-19.62L456.24,444.52c7.18-5.25,34.29-9.53,60.44-9.53s50.37,4.41,53.87,9.82l143.61,222c3.32,5.12,32.82,9.45,64.43,9.45h1.19c32.24,0,71.19-3.79,86.83-8.45L1211.8,564.92c15.7-4.69,46.54-8.49,68.74-8.49s43.7,4.38,47.74,9.78l325.77,433.84a2.78,2.78,0,0,1,.38,2.88c-2.17,5.05-19.13,10.38-41.25,13l-679.71,79.45C911,1098,873.15,1099.74,842.68,1099.74ZM6.74,788l41.52,76.33c2.89,5.28,11.09,13.79,18.3,19l271.66,195c7.2,5.17,39,10,70.88,10.73l418.56,9.82c31.94.75,79.36-1.15,105.72-4.23l679.71-79.45c21.5-2.51,38.58-7.77,40.6-12.49a2,2,0,0,0-.28-2.08L1327.64,566.69c-3.91-5.22-25-9.46-47.1-9.46s-52.87,3.79-68.51,8.45L866.84,668.61c-15.7,4.68-54.76,8.49-87.06,8.49h-1.19c-32.39,0-61.6-4.41-65.1-9.83l-143.61-222c-3.32-5.13-27.68-9.46-53.2-9.46-26,0-52.91,4.21-60,9.38L14.28,769.35C7.32,774.45,3.94,782.8,6.74,788Z" transform="translate(-4.97 -434.99)" style="fill: #eb3794"/>
    <path d="M842.68,1099.74c-5.27,0-10.32,0-15-.16l-418.56-9.82c-32-.75-64-5.63-71.33-10.88l-271.66-195c-7.28-5.23-15.6-13.86-18.53-19.23L6,788.33c-3-5.49.5-14.3,7.77-19.62L456.24,444.52c7.18-5.25,34.29-9.53,60.44-9.53s50.37,4.41,53.87,9.82l143.61,222c3.32,5.12,32.82,9.45,64.43,9.45h1.19c32.24,0,71.19-3.79,86.83-8.45L1211.8,564.92c15.7-4.69,46.54-8.49,68.74-8.49s43.7,4.38,47.74,9.78l325.77,433.84a2.78,2.78,0,0,1,.38,2.88c-2.17,5.05-19.13,10.38-41.25,13l-679.71,79.45C911,1098,873.15,1099.74,842.68,1099.74ZM6.74,788l41.52,76.33c2.89,5.28,11.09,13.79,18.3,19l271.66,195c7.2,5.17,39,10,70.88,10.73l418.56,9.82c31.94.75,79.36-1.15,105.72-4.23l679.71-79.45c21.5-2.51,38.58-7.77,40.6-12.49a2,2,0,0,0-.28-2.08L1327.64,566.69c-3.91-5.22-25-9.46-47.1-9.46s-52.87,3.79-68.51,8.45L866.84,668.61c-15.7,4.68-54.76,8.49-87.06,8.49h-1.19c-32.39,0-61.6-4.41-65.1-9.83l-143.61-222c-3.32-5.13-27.68-9.46-53.2-9.46-26,0-52.91,4.21-60,9.38L14.28,769.35C7.32,774.45,3.94,782.8,6.74,788Z" transform="translate(-4.97 -434.99)" style="fill: #eb3794"/>
    <path d="M842,1053.22c-5,0-9.79,0-14.25-.14l-393.45-8.44c-30.1-.65-60.17-4.84-67-9.36L111.94,867.6c-6.86-4.5-14.67-11.92-17.42-16.54l-39-65.64c-2.82-4.74.46-12.33,7.3-16.92L478.68,489.7c6.74-4.52,32.21-8.19,56.79-8.19s47.32,3.79,50.62,8.44l135,190.94c3.12,4.41,30.86,8.14,60.58,8.14h1.12c30.3,0,66.93-3.26,81.64-7.27l324.47-88.52c14.77-4,43.75-7.3,64.6-7.3s41.06,3.78,44.87,8.41l306.22,373.11a2.26,2.26,0,0,1,.41,2.39c-1.8,4.39-17.76,9-38.81,11.28l-638.93,68.32C906.12,1051.71,870.64,1053.22,842,1053.22Zm-306.56-571c-24.45,0-49.75,3.62-56.39,8.07L63.19,769.1c-6.53,4.38-9.71,11.53-7.08,15.95l39,65.64c2.7,4.54,10.41,11.86,17.2,16.31l255.35,167.68c6.77,4.45,36.67,8.59,66.65,9.24l393.45,8.44c30,.65,74.59-1,99.38-3.63l638.93-68.32c23.2-2.48,36.79-7.33,38.22-10.84a1.51,1.51,0,0,0-.3-1.65L1297.8,594.81c-3.69-4.49-23.56-8.14-44.31-8.14s-49.7,3.26-64.41,7.27L864.61,682.45c-14.76,4-51.47,7.3-81.83,7.3h-1.12c-30.44,0-57.88-3.79-61.17-8.44l-135-190.94C582.38,486,559.47,482.23,535.47,482.23Z" transform="translate(-4.97 -434.99)" style="fill: #eb3794"/>
    <path d="M841.2,1013.22c-4.67,0-9.13,0-13.3-.12l-369.84-7.26c-28.28-.56-56.54-4.16-63-8L155,853.6c-6.46-3.89-13.8-10.27-16.37-14.23L102,782.91h0a6.57,6.57,0,0,1-.75-5.15c.78-3.47,3.63-7,7.61-9.44L499.77,528.55c6.33-3.88,30.27-7,53.36-7s44.47,3.25,47.56,7.26L727.58,693c2.93,3.8,29,7,57,7h1.05c28.5,0,62.93-2.8,76.75-6.26l305-76.11c13.86-3.47,41.1-6.28,60.71-6.28s38.59,3.24,42.15,7.22l287.87,320.88a1.84,1.84,0,0,1,.43,2c-1.48,3.81-16.5,7.84-36.51,9.8L921.39,1010C901.52,1011.91,868.11,1013.22,841.2,1013.22ZM553.13,522.16c-23,0-46.78,3.12-53,7L109.17,768.88c-3.84,2.35-6.57,5.72-7.32,9a5.94,5.94,0,0,0,.66,4.65h0L139.2,839c2.53,3.89,9.78,10.19,16.16,14l240,144.21c6.37,3.82,34.49,7.39,62.67,7.94l369.84,7.26c28.22.56,70.13-.85,93.42-3.13l600.6-58.76c22-2.16,34.79-6.35,36-9.38a1.23,1.23,0,0,0-.31-1.33L1269.72,619c-3.46-3.87-22.15-7-41.67-7s-46.73,2.81-60.55,6.26l-305,76.11c-13.85,3.47-48.35,6.28-76.9,6.28h-1.05c-28.6,0-54.38-3.25-57.47-7.25L600.18,529.16C597.24,525.37,575.7,522.16,553.13,522.16Z" transform="translate(-4.97 -434.99)" style="fill: #eb3794"/>
    <path d="M840.5,978.81c-4.38,0-8.57,0-12.48-.1l-347.66-6.24c-26.57-.48-53.13-3.58-59.19-6.92l-225.64-124c-6.05-3.33-13-8.82-15.39-12.23l-34.48-48.55a5.28,5.28,0,0,1-.75-4.31c.69-3,3.38-6.13,7.2-8.27L519.59,562c5.94-3.33,28.44-6.05,50.14-6.05s41.78,2.8,44.69,6.23L733.7,703.37c2.76,3.27,27.29,6,53.57,6h1c26.78,0,59.15-2.41,72.15-5.38l286.7-65.46c13-3,38.63-5.4,57.07-5.4s36.24,2.78,39.6,6.2l270.58,275.95a1.54,1.54,0,0,1,.44,1.67c-1.22,3.31-15.34,6.8-34.34,8.5L915.9,976C897.22,977.69,865.81,978.81,840.5,978.81ZM146.13,780.41,180.62,829c2.39,3.35,9.2,8.77,15.19,12.06L421.45,965c6,3.3,32.43,6.37,58.92,6.84L828,978.13c26.53.48,65.93-.73,87.82-2.69l564.56-50.54c20.71-1.85,32.9-5.57,33.84-8.12a1,1,0,0,0-.31-1.06l-270.58-276c-3.21-3.27-21.15-6-39.18-6-18.4,0-43.94,2.42-56.94,5.38l-286.7,65.47c-13,3-45.46,5.4-72.28,5.4h-1c-26.88,0-51.11-2.8-54-6.24L614,562.53c-2.76-3.27-23-6-44.24-6-21.62,0-44,2.69-49.86,6L152.39,768.68c-3.62,2-6.27,5.06-6.91,7.89a4.71,4.71,0,0,0,.65,3.84Z" transform="translate(-4.97 -434.99)" style="fill: #eb3794"/>
    <path d="M839.82,949.22c-4.1,0-8,0-11.69-.09l-326.8-5.37c-25-.41-49.93-3.07-55.63-5.93L233.61,831.16c-5.69-2.85-12.18-7.57-14.47-10.52l-32.42-41.75a4.22,4.22,0,0,1-.73-3.6c.58-2.61,3.19-5.39,6.8-7.25L538.22,590.71c5.58-2.87,26.72-5.2,47.12-5.2s39.26,2.4,42,5.36L739.45,712.32c2.6,2.81,25.66,5.19,50.37,5.19h.93c25.17,0,55.6-2.08,67.83-4.63l269.51-56.3c12.24-2.56,36.3-4.64,53.63-4.64s34,2.39,37.21,5.33l254.34,237.31a1.27,1.27,0,0,1,.44,1.4c-1,2.87-14.28,5.9-32.29,7.38L910.73,946.82C893.16,948.26,863.61,949.22,839.82,949.22ZM187.14,778.57l32.41,41.75c2.26,2.89,8.67,7.55,14.29,10.38L445.93,937.36c5.65,2.83,30.5,5.47,55.41,5.88l326.79,5.37c24.94.4,62-.63,82.56-2.31l530.68-43.46c19.66-1.62,31.08-4.83,31.84-7,.06-.18.1-.47-.3-.84L1218.57,657.65c-3.07-2.86-19.6-5.19-36.85-5.19s-41.31,2.08-53.53,4.63l-269.5,56.3C846.43,716,816,718,790.75,718h-.93c-25.26,0-48-2.4-50.75-5.36L626.94,591.22c-2.59-2.81-21.65-5.19-41.6-5.19-20.33,0-41.36,2.31-46.88,5.15L193,768.51c-3.48,1.78-6,4.43-6.52,6.9a3.66,3.66,0,0,0,.63,3.16Z" transform="translate(-4.97 -434.99)" style="fill: #eb3794"/>
    <path d="M839.29,923.77c-3.88,0-7.6,0-11.06-.07L521,919.08c-23.47-.35-46.93-2.64-52.28-5.11L269.39,822.24c-5.35-2.46-11.45-6.52-13.59-9l-30.47-35.9a3.39,3.39,0,0,1-.71-3c.49-2.28,2.95-4.71,6.4-6.34l324.71-152.5C561,613,580.85,611,600,611s36.9,2.06,39.46,4.6L744.86,720c2.44,2.42,24.13,4.46,47.36,4.46h.87c23.68,0,52.29-1.78,63.77-4l253.33-48.41c11.51-2.2,34.13-4,50.41-4s32,2,35,4.58l239.08,204.09a1.07,1.07,0,0,1,.44,1.18c-.81,2.48-13.3,5.11-30.36,6.39L905.87,921.71C889.35,922.94,861.62,923.77,839.29,923.77ZM600,611.43c-19.11,0-38.88,2-44.08,4.43L231.22,768.36c-3.32,1.56-5.68,3.87-6.14,6a2.91,2.91,0,0,0,.61,2.62l30.47,35.9c2.11,2.48,8.13,6.48,13.43,8.92L469,913.54c5.3,2.44,28.67,4.71,52.09,5.07l307.18,4.61c23.42.36,58.23-.53,77.61-2l498.84-37.38c18.62-1.4,29.33-4.17,30-6.07,0-.14.07-.37-.29-.67L1195.25,673c-2.88-2.47-18.42-4.47-34.65-4.47s-38.83,1.79-50.32,4L857,721c-11.51,2.2-40.15,4-63.86,4h-.87c-23.74,0-45.13-2.07-47.69-4.61L639.13,615.9C636.69,613.48,618.78,611.43,600,611.43Z" transform="translate(-4.97 -434.99)" style="fill: #eb3794"/>
    <path d="M838.69,901.88c-3.63,0-7.12,0-10.37-.06l-288.75-4c-22.08-.31-44.12-2.28-49.14-4.39L303,814.57c-5-2.11-10.76-5.6-12.78-7.78l-28.64-30.87a2.74,2.74,0,0,1-.7-2.53c.43-2,2.74-4.13,6-5.55L572.18,636.69c4.93-2.12,23.6-3.84,41.62-3.84s34.66,1.77,37.07,3.95L750,726.63c2.29,2.08,22.69,3.84,44.53,3.84h.82c22.26,0,49.15-1.54,59.94-3.42l238.14-41.65c10.8-1.89,32.06-3.43,47.38-3.43s30.08,1.77,32.85,3.94l224.74,175.52a.91.91,0,0,1,.42,1c-.66,2.15-12.4,4.43-28.54,5.53L901.31,900.11C885.79,901.17,859.71,901.88,838.69,901.88ZM613.8,633.27c-18,0-36.57,1.71-41.45,3.81L267.13,768.23c-3.19,1.37-5.41,3.38-5.8,5.24a2.31,2.31,0,0,0,.59,2.16l28.65,30.88c2,2.13,7.64,5.58,12.62,7.67L490.6,893.07c5,2.1,26.94,4,49,4.35l288.76,4c22,.31,54.76-.46,72.95-1.71l468.92-32.14c17.62-1.21,27.66-3.6,28.16-5.23,0-.07.08-.26-.27-.54L1173.35,686.24c-2.71-2.12-17.33-3.84-32.59-3.84s-36.52,1.53-47.31,3.42L855.32,727.46c-10.82,1.89-37.74,3.43-60,3.43h-.82c-22.31,0-42.41-1.77-44.82-3.95l-99.07-89.83C648.29,635,631.44,633.27,613.8,633.27Z" transform="translate(-4.97 -434.99)" style="fill: #eb3794"/>
    <path d="M838.24,883.06c-3.45,0-6.75,0-9.83-.06L557,879.59c-20.74-.26-41.46-2-46.19-3.77L334.64,808c-4.73-1.82-10.11-4.82-12-6.69l-26.93-26.55h0a2.25,2.25,0,0,1-.67-2.12c.36-1.75,2.54-3.6,5.7-4.84L587.65,655c4.64-1.82,22.18-3.3,39.11-3.3s32.57,1.52,34.83,3.4l93.13,77.25c2.16,1.79,21.33,3.31,41.87,3.31h.77c20.93,0,46.21-1.33,56.36-3l223.85-35.81a350.78,350.78,0,0,1,44.53-3c14.4,0,28.24,1.52,30.86,3.38l211.26,151c.44.31.46.63.4.84-.62,2.18-14.34,4-26.83,4.79L897,881.53C882.42,882.45,858,883.06,838.24,883.06Zm-211.48-231c-16.89,0-34.37,1.47-39,3.28L300.88,768.12c-3,1.2-5.13,2.94-5.46,4.56a1.86,1.86,0,0,0,.56,1.78L322.91,801c1.85,1.84,7.18,4.8,11.87,6.61l176.16,67.84c4.69,1.81,25.35,3.49,46.05,3.75l271.43,3.41c20.67.27,51.43-.39,68.57-1.47l440.78-27.65c16.06-1,26.08-3.08,26.49-4.51,0,0,.06-.2-.26-.43L1152.74,697.61c-2.56-1.82-16.31-3.31-30.64-3.31a350,350,0,0,0-44.48,3l-223.84,35.8c-10.17,1.63-35.48,3-56.42,3h-.77c-21,0-39.86-1.53-42.12-3.4l-93.12-77.25C659.19,653.57,643.35,652.05,626.76,652.05Z" transform="translate(-4.97 -434.99)" style="fill: #eb3794"/>
    <path d="M837.66,866.88c-3.2,0-6.28,0-9.15,0l-255.16-3c-19.48-.22-39-1.67-43.4-3.24L364.36,802.3a42.52,42.52,0,0,1-11.27-5.74l-25.32-22.85a1.87,1.87,0,0,1-.64-1.8c.3-1.51,2.35-3.12,5.36-4.21l269.7-97c4.35-1.57,20.84-2.84,36.75-2.84s30.6,1.31,32.74,2.92l87.54,66.43c2,1.55,20.07,2.85,39.37,2.85h.73c19.66,0,43.43-1.13,53-2.53l210.41-30.8a359.42,359.42,0,0,1,41.86-2.54c13.54,0,26.55,1.31,29,2.91l198.58,129.82c.41.26.44.54.39.72-.5,1.88-13.42,3.46-25.22,4.14L893,865.56C879.31,866.35,856.26,866.88,837.66,866.88ZM328,773.46l25.31,22.83A42,42,0,0,0,364.47,802l165.6,58.35c4.41,1.55,23.83,3,43.29,3.22l255.15,3c19.52.22,48.43-.35,64.46-1.27l414.33-23.77c15.18-.87,24.59-2.66,24.91-3.89,0-.11,0-.22-.24-.35L1133.39,707.4c-2.41-1.57-15.33-2.85-28.82-2.85a358.42,358.42,0,0,0-41.81,2.53l-210.41,30.8c-9.57,1.4-33.36,2.53-53,2.53h-.73c-19.7,0-37.46-1.31-39.58-2.92l-87.54-66.43c-2.05-1.54-16.94-2.85-32.53-2.85-15.88,0-32.32,1.26-36.64,2.82L332.61,768c-2.85,1-4.87,2.57-5.15,4a1.51,1.51,0,0,0,.54,1.48Z" transform="translate(-4.97 -434.99)" style="fill: #eb3794"/>
    <path d="M837.24,853c-3,0-6,0-8.66,0l-239.83-2.53c-18.32-.19-36.62-1.44-40.79-2.79L392.3,797.42a41.49,41.49,0,0,1-10.58-4.94l-23.81-19.65a1.52,1.52,0,0,1-.62-1.51c.25-1.32,2.18-2.73,5-3.67l253.51-83.42c4.09-1.35,19.59-2.45,34.55-2.45s28.76,1.13,30.76,2.51l82.29,57.14c1.95,1.35,18.55,2.45,37,2.45h.68c18.49,0,40.83-1,49.8-2.18l197.79-26.48a366.67,366.67,0,0,1,39.34-2.18c12.72,0,25,1.11,27.26,2.49L1302,827.17c.38.22.41.46.37.62-.4,1.62-12.57,3-23.7,3.59L889.19,851.82C876.33,852.49,854.7,853,837.24,853ZM650.4,682.09c-14.94,0-30.39,1.09-34.45,2.43L362.44,767.94c-2.72.89-4.62,2.24-4.85,3.44a1.23,1.23,0,0,0,.51,1.21l23.8,19.64a40.62,40.62,0,0,0,10.49,4.89L548.05,847.3c4.15,1.34,22.41,2.58,40.7,2.77l239.83,2.53c18.32.19,45.5-.3,60.6-1.09l389.47-20.44c14.33-.76,23.16-2.31,23.42-3.36,0-.1-.11-.21-.23-.28L1115.18,715.79c-2.27-1.35-14.43-2.45-27.1-2.45a371.17,371.17,0,0,0-39.3,2.18L851,742c-9,1.2-31.34,2.18-49.84,2.18h-.68c-18.52,0-35.21-1.13-37.2-2.51L681,684.55C679.07,683.22,665.06,682.09,650.4,682.09Z" transform="translate(-4.97 -434.99)" style="fill: #eb3794"/>
    <path d="M836.81,841c-2.86,0-5.6,0-8.16,0l-225.44-2.17c-17.23-.16-34.42-1.24-38.34-2.39L418.55,793.21A40.77,40.77,0,0,1,408.6,789l-22.37-16.91a1.26,1.26,0,0,1-.59-1.27c.21-1.15,2-2.38,4.75-3.2l238.3-71.74c3.85-1.16,18.41-2.1,32.47-2.1s27,1,28.91,2.16l77.35,49.13c1.83,1.17,17.45,2.12,34.81,2.12h.64c17.38,0,38.38-.85,46.81-1.88l185.92-22.77c8.46-1,25.05-1.88,37-1.88s23.46,1,25.62,2.15l175.46,96c.28.15.4.33.35.53-.32,1.41-11.77,2.59-22.28,3.09L885.63,840C873.53,840.58,853.2,841,836.81,841ZM386.39,771.85l22.37,16.9a40.41,40.41,0,0,0,9.87,4.2L565,836.1c3.89,1.15,21.06,2.22,38.26,2.39l225.44,2.17c17.21.16,42.77-.25,57-.94l366.1-17.58c13.52-.65,21.82-2,22-2.88,0-.09-.14-.19-.21-.23l-175.47-96c-2.12-1.17-13.55-2.11-25.48-2.11s-28.5.84-36.94,1.87L849.72,745.57c-8.44,1-29.46,1.87-46.85,1.87h-.64c-17.41,0-33.09-1-35-2.15l-77.35-49.14C688.09,695,675.19,694,661.16,694s-28.56.94-32.39,2.09l-238.3,71.74c-2.58.77-4.37,1.94-4.56,3A1,1,0,0,0,386.39,771.85Z" transform="translate(-4.97 -434.99)" style="fill: #eb3794"/>
    <path d="M836.19,830.67c-2.62,0-5.13,0-7.47,0l-211.91-1.87c-16.21-.14-32.37-1.07-36-2.06L443.23,789.6a39.8,39.8,0,0,1-9.34-3.64l-21-14.54a1.06,1.06,0,0,1-.56-1.08c.17-1,1.89-2.06,4.47-2.77l224-61.7c3.62-1,17.31-1.8,30.52-1.8s25.41.83,27.16,1.85l72.71,42.26c1.73,1,16.41,1.82,32.73,1.82h.6c16.34,0,36.08-.73,44-1.61l174.77-19.59c7.94-.89,23.53-1.62,34.76-1.62s22,.83,24.06,1.85L1247,811.6c.26.13.37.28.34.45-.26,1.22-11,2.24-20.94,2.68L882.28,829.84C870.8,830.34,851.58,830.67,836.19,830.67ZM413,771.22l21,14.53a40,40,0,0,0,9.29,3.61l137.54,37.11c3.64,1,19.78,1.91,36,2.06l211.91,1.87c16.09.13,40.12-.23,53.55-.81l344.14-15.11c12.75-.56,20.54-1.7,20.7-2.48,0,0,0-.1-.2-.18L1082,729.25c-2-1-12.75-1.82-24-1.82s-26.8.73-34.73,1.62L848.52,748.63c-7.94.89-27.69,1.62-44,1.62h-.6c-16.36,0-31.09-.83-32.85-1.86l-72.71-42.26c-1.72-1-13.85-1.81-27-1.81s-26.85.8-30.45,1.79l-224,61.7c-2.46.67-4.14,1.68-4.29,2.57a.84.84,0,0,0,.45.84Z" transform="translate(-4.97 -434.99)" style="fill: #eb3794"/>
    <path d="M836,821.81c-2.54,0-5,0-7.23,0l-199.2-1.61c-15.22-.12-30.41-.92-33.86-1.77L466.43,786.5a40.14,40.14,0,0,1-8.78-3.14l-19.77-12.5a.9.9,0,0,1-.53-.92c.13-.87,1.75-1.79,4.2-2.41l210.56-53.06c3.39-.85,16.26-1.55,28.68-1.55s23.88.71,25.53,1.59l68.35,36.34c1.62.86,15.42,1.57,30.77,1.57H806c15.34,0,33.9-.63,41.36-1.39l164.28-16.85c7.46-.76,22.11-1.39,32.68-1.39s20.71.71,22.62,1.59l155,71c.24.11.35.24.32.39-.21,1.05-10,1.92-19.67,2.31l-323.49,13C868.4,821.53,850.45,821.81,836,821.81ZM438,770.67l19.77,12.49a38.92,38.92,0,0,0,8.72,3.12l129.3,31.91c3.44.85,18.61,1.64,33.81,1.77l199.21,1.6c15.13.12,37.71-.18,50.33-.69l323.49-13c13.24-.54,19.35-1.57,19.46-2.13,0,0,0-.07-.19-.15l-155-71c-1.88-.86-12-1.56-22.52-1.56s-25.21.62-32.65,1.38L847.4,751.25c-7.47.77-26,1.39-41.39,1.39h-.57c-15.38,0-29.23-.72-30.87-1.59l-68.35-36.34c-1.63-.86-13-1.57-25.43-1.57s-25.25.7-28.62,1.55L441.6,767.75c-2.65.67-3.93,1.6-4,2.23,0,.25.1.49.42.69Z" transform="translate(-4.97 -434.99)" style="fill: #eb3794"/>
    <path d="M835.62,814.2c-2.37,0-4.64,0-6.77,0L641.6,812.79c-14.31-.11-28.59-.79-31.83-1.52L488.25,783.82a39.33,39.33,0,0,1-8.26-2.7L461.4,770.38c-.47-.27-.53-.58-.5-.79.11-.75,1.62-1.55,4-2.09l197.93-45.63c3.22-.73,15.31-1.33,27-1.33s22.44.61,24,1.36L778,753.16c1.53.74,14.51,1.34,28.93,1.34h.53c14.42,0,31.87-.53,38.89-1.19l154.42-14.49c7-.66,20.8-1.19,30.71-1.19s19.47.61,21.26,1.36l145.74,61.07c.08,0,.33.14.3.34-.17.91-9.41,1.66-18.5,2L876.17,813.58C866.16,814,849.28,814.2,835.62,814.2Zm-374.12-44,18.58,10.74a39.24,39.24,0,0,0,8.21,2.68l121.53,27.45c3.22.73,17.48,1.41,31.78,1.52L828.85,814c14.35.11,35.57-.16,47.31-.6l304.08-11.18c12.39-.45,18.25-1.36,18.31-1.83h0s0-.05-.18-.12l-145.74-61.06c-1.77-.75-11.27-1.35-21.18-1.35s-23.68.54-30.69,1.19L846.34,753.51c-7,.66-24.48,1.2-38.91,1.2h-.53c-14.45,0-27.47-.62-29-1.37l-64.24-31.25c-1.53-.75-12.25-1.35-23.91-1.35s-23.7.59-26.91,1.33L464.89,767.7c-2.51.58-3.71,1.38-3.79,1.92,0,.22.1.41.4.58Z" transform="translate(-4.97 -434.99)" style="fill: #eb3794"/>
    <path d="M835.39,807.63l-6.48,0-176-1.19c-13.43-.09-26.85-.67-29.92-1.31l-114.23-23.6a40.51,40.51,0,0,1-7.76-2.32L483.51,770c-.44-.23-.5-.49-.48-.67.1-.65,1.52-1.35,3.72-1.81l186-39.24c3-.64,14.36-1.15,25.34-1.15s21.09.52,22.55,1.17l60.39,26.87c1.43.64,13.63,1.16,27.2,1.16h.5c13.55,0,30-.46,36.55-1L990.49,742.8c6.59-.56,19.54-1,28.87-1s18.29.52,20,1.16l137,52.52c.07,0,.31.12.28.3-.15.9-11,1.51-17.38,1.72L873.39,807.1C864,807.42,848.16,807.63,835.39,807.63ZM483.59,769.8,501.06,779a39.56,39.56,0,0,0,7.71,2.3L623,804.93c3.06.64,16.46,1.22,29.89,1.31l176,1.19c13.41.09,33.36-.14,44.47-.51l285.84-9.62c11.64-.39,17.07-1.16,17.21-1.57h0s0,0-.17-.1l-137-52.52c-1.67-.63-10.6-1.15-19.91-1.15s-22.27.46-28.85,1L845.35,755.44c-6.61.57-23,1-36.57,1h-.5c-13.59,0-25.82-.52-27.28-1.17l-60.39-26.88c-1.43-.63-11.52-1.15-22.47-1.15s-22.32.51-25.3,1.14l-186,39.25c-2.38.5-3.51,1.19-3.58,1.66,0,.17.11.34.38.48Z" transform="translate(-4.97 -434.99)" style="fill: #eb3794"/>
  </g>
</svg>
