<svg xmlns="http://www.w3.org/2000/svg" width="1135.998" height="457.808" viewBox="0 0 1135.998 457.808">
  <g id="Group_332" data-name="Group 332" transform="translate(-14.657 -548.454)">
    <path id="Path_383" data-name="Path 383" d="M15.666,791.627c-1.989-3.658.381-9.578,5.269-13.16L325.588,555.242c4.886-3.582,23.541-6.512,41.455-6.512s34.5,2.987,36.86,6.637l98.889,152.883c2.36,3.65,22.428,6.637,44.592,6.637h.82c22.166,0,49.107-2.626,59.872-5.835l237.687-70.869c10.763-3.209,32.028-5.835,47.254-5.835s29.922,2.981,32.657,6.625L1149.99,937.706c2.737,3.644-9.844,8.357-27.953,10.475L654,1002.889c-18.11,2.116-50.884,3.427-72.829,2.913l-288.213-6.762c-21.948-.514-43.981-3.862-48.964-7.44L56.936,857.335c-4.983-3.576-10.689-9.5-12.68-13.152Z" fill="none" stroke="#ff00a7" stroke-miterlimit="10" stroke-width="0.552"/>
    <path id="Path_384" data-name="Path 384" d="M15.666,791.627c-1.989-3.658.381-9.578,5.269-13.16L325.588,555.242c4.886-3.582,23.541-6.512,41.455-6.512s34.5,2.987,36.86,6.637l98.889,152.883c2.36,3.65,22.428,6.637,44.592,6.637h.82c22.166,0,49.107-2.626,59.872-5.835l237.687-70.869c10.763-3.209,32.028-5.835,47.254-5.835s29.922,2.981,32.657,6.625L1149.99,937.706c2.737,3.644-9.844,8.357-27.953,10.475L654,1002.889c-18.11,2.116-50.884,3.427-72.829,2.913l-288.213-6.762c-21.948-.514-43.981-3.862-48.964-7.44L56.936,857.335c-4.983-3.576-10.689-9.5-12.68-13.152Z" fill="none" stroke="#ff00a7" stroke-miterlimit="10" stroke-width="0.552"/>
    <path id="Path_385" data-name="Path 385" d="M32.788,773.748c-1.871-3.146.359-8.238,4.952-11.318L324.113,570.456c4.594-3.08,22.128-5.6,38.966-5.6s32.431,2.57,34.651,5.71l92.953,131.477c2.221,3.14,21.085,5.708,41.919,5.708h.77c20.835,0,46.162-2.259,56.28-5.017l223.424-60.948c10.12-2.758,30.109-5.017,44.42-5.017s28.126,2.562,30.7,5.7l210.857,256.912c2.572,3.134-9.252,7.186-26.274,9.008L632.822,955.433c-17.024,1.82-47.831,2.947-68.461,2.5l-270.922-5.813c-20.63-.443-41.341-3.322-46.027-6.4L71.581,830.258c-4.686-3.076-10.048-8.167-11.918-11.312Z" transform="translate(16.899 15.877)" fill="none" stroke="#ff00a7" stroke-miterlimit="10" stroke-width="0.497"/>
    <path id="Path_386" data-name="Path 386" d="M48.881,758.37c-1.758-2.7.337-7.085,4.656-9.732l269.191-165.1c4.319-2.65,20.8-4.817,36.628-4.817s30.484,2.209,32.572,4.91L479.3,696.7c2.088,2.7,19.818,4.908,39.4,4.908h.722c19.586,0,43.392-1.941,52.9-4.317l210.02-52.414c9.51-2.374,28.3-4.315,41.752-4.315s26.439,2.2,28.856,4.9L1051.17,866.411c2.417,2.7-8.7,6.18-24.7,7.746L612.912,914.619c-16,1.566-44.959,2.536-64.351,2.155l-254.668-5c-19.392-.381-38.861-2.858-43.265-5.5l-165.283-99.3c-4.4-2.648-9.445-7.024-11.2-9.729Z" transform="translate(32.784 29.532)" fill="none" stroke="#ff00a7" stroke-miterlimit="10" stroke-width="0.447"/>
    <path id="Path_387" data-name="Path 387" d="M64.008,745.146c-1.651-2.326.318-6.093,4.378-8.371L321.424,594.792c4.059-2.278,19.554-4.142,34.431-4.142s28.656,1.9,30.617,4.221l82.135,97.24c1.961,2.322,18.63,4.223,37.039,4.223h.681c18.409,0,40.788-1.671,49.728-3.713l197.417-45.075c8.941-2.042,26.6-3.711,39.25-3.711s24.851,1.9,27.124,4.213L1006.16,838.06c2.272,2.318-8.175,5.317-23.216,6.662L594.2,879.52c-15.043,1.346-42.264,2.179-60.491,1.852l-239.388-4.3c-18.227-.327-36.529-2.457-40.669-4.733L98.286,786.94c-4.138-2.276-8.877-6.041-10.53-8.365Z" transform="translate(47.716 41.275)" fill="none" stroke="#ff00a7" stroke-miterlimit="10" stroke-width="0.402"/>
    <path id="Path_388" data-name="Path 388" d="M78.229,733.774c-1.552-2,.3-5.239,4.114-7.2L320.2,604.468c3.816-1.959,18.382-3.562,32.367-3.562s26.935,1.635,28.779,3.632l77.207,83.628c1.844,2,17.51,3.63,34.816,3.63h.639c17.306,0,38.341-1.437,46.746-3.191l185.573-38.765c8.4-1.756,25.006-3.193,36.894-3.193s23.361,1.631,25.5,3.624L963.851,813.68c2.137,1.993-7.684,4.571-21.823,5.73L576.607,849.336c-14.138,1.157-39.726,1.874-56.861,1.594l-225.023-3.7c-17.135-.28-34.338-2.112-38.23-4.068L110.451,769.717c-3.892-1.957-8.347-5.2-9.9-7.194Z" transform="translate(61.752 51.373)" fill="none" stroke="#ff00a7" stroke-miterlimit="10" stroke-width="0.361"/>
    <path id="Path_389" data-name="Path 389" d="M91.6,723.993c-1.461-1.721.28-4.507,3.866-6.192l223.585-105.01c3.588-1.685,17.278-3.064,30.424-3.064s25.32,1.405,27.052,3.124L449.1,684.769c1.733,1.717,16.46,3.122,32.726,3.122h.6c16.266,0,36.039-1.234,43.939-2.745l174.438-33.337c7.9-1.51,23.508-2.745,34.681-2.745s21.96,1.4,23.966,3.116L924.081,792.712c2.008,1.715-7.224,3.931-20.515,4.928L560.073,823.377c-13.293.994-37.344,1.612-53.452,1.369L295.1,821.567c-16.105-.242-32.276-1.818-35.935-3.5L121.884,754.9c-3.658-1.683-7.845-4.467-9.306-6.186Z" transform="translate(74.946 60.058)" fill="none" stroke="#ff00a7" stroke-miterlimit="10" stroke-width="0.325"/>
    <path id="Path_390" data-name="Path 390" d="M104.161,715.581c-1.373-1.479.264-3.876,3.636-5.325l210.169-90.31c3.372-1.449,16.242-2.634,28.6-2.634s23.8,1.209,25.431,2.685l68.219,61.851c1.629,1.477,15.472,2.685,30.763,2.685h.566c15.291,0,33.877-1.062,41.3-2.36L676.82,653.5c7.426-1.3,22.095-2.36,32.6-2.36s20.642,1.2,22.529,2.679L886.7,774.681c1.887,1.474-6.789,3.38-19.283,4.237L544.529,801.05c-12.5.857-35.1,1.387-50.245,1.179l-198.831-2.735c-15.139-.208-30.341-1.562-33.778-3.011L132.633,742.165c-3.439-1.447-7.375-3.842-8.746-5.321Z" transform="translate(87.348 67.528)" fill="none" stroke="#ff00a7" stroke-miterlimit="10" stroke-width="0.292"/>
    <path id="Path_391" data-name="Path 391" d="M115.973,708.348c-1.29-1.272.246-3.332,3.416-4.579L316.949,626.1c3.169-1.244,15.266-2.265,26.882-2.265s22.373,1.04,23.9,2.31l64.127,53.192c1.53,1.27,14.543,2.308,28.918,2.308h.532c14.372,0,31.845-.913,38.825-2.03L654.271,654.96a239.772,239.772,0,0,1,30.642-2.03c9.873,0,19.4,1.038,21.178,2.3l145.464,103.94c1.774,1.266-6.383,2.907-18.127,3.644L529.917,781.852c-11.745.736-33,1.193-47.228,1.012l-186.9-2.352c-14.232-.179-28.521-1.344-31.754-2.588l-121.3-46.716c-3.233-1.244-6.932-3.3-8.222-4.575Z" transform="translate(99.006 73.951)" fill="none" stroke="#ff00a7" stroke-miterlimit="10" stroke-width="0.262"/>
    <path id="Path_392" data-name="Path 392" d="M127.075,702.127c-1.213-1.1.232-2.866,3.211-3.937L315.992,631.4c2.979-1.072,14.351-1.949,25.27-1.949s21.029.9,22.47,1.987l60.279,45.745c1.439,1.092,13.672,1.987,27.183,1.987h.5c13.511,0,29.936-.786,36.5-1.746l144.885-21.206a246.2,246.2,0,0,1,28.807-1.746c9.28,0,18.239.893,19.906,1.983l136.736,89.387c1.669,1.089-6,2.5-17.038,3.134l-285.3,16.369c-11.038.635-31.016,1.026-44.394.873L296.1,764.188c-13.376-.153-26.808-1.155-29.847-2.225L152.232,721.789a29.171,29.171,0,0,1-7.73-3.936Z" transform="translate(109.965 79.475)" fill="none" stroke="#ff00a7" stroke-miterlimit="10" stroke-width="0.236"/>
    <path id="Path_393" data-name="Path 393" d="M137.512,696.777c-1.141-.941.218-2.465,3.019-3.388l174.565-57.441c2.8-.923,13.489-1.677,23.752-1.677s19.769.77,21.122,1.709l56.663,39.341c1.354.939,12.85,1.707,25.552,1.707h.468c12.7,0,28.14-.675,34.308-1.5l136.192-18.237a252.775,252.775,0,0,1,27.076-1.5c8.724,0,17.145.768,18.713,1.7l128.532,76.874c1.568.937-5.64,2.149-16.016,2.7L503.274,751.14c-10.377.546-29.156.883-41.732.75L296.4,750.15c-12.574-.131-25.2-.992-28.057-1.913l-107.181-34.55a28.343,28.343,0,0,1-7.264-3.386Z" transform="translate(120.266 84.226)" fill="none" stroke="#ff00a7" stroke-miterlimit="10" stroke-width="0.212"/>
    <path id="Path_394" data-name="Path 394" d="M147.321,692.175c-1.072-.81.206-2.12,2.838-2.911l164.09-49.4c2.632-.792,12.68-1.441,22.329-1.441s18.582.661,19.854,1.469l53.261,33.834c1.272.808,12.08,1.469,24.02,1.469h.441c11.939,0,26.451-.581,32.248-1.292l128.021-15.682c5.8-.71,17.252-1.292,25.453-1.292s16.115.659,17.59,1.467L758.285,724.5c1.475.808-5.3,1.85-15.055,2.318L491.138,738.929c-9.754.468-27.408.758-39.228.643l-155.236-1.494c-11.82-.115-23.688-.855-26.374-1.647L169.549,706.717a27.914,27.914,0,0,1-6.829-2.909Z" transform="translate(129.949 88.312)" fill="none" stroke="#ff00a7" stroke-miterlimit="10" stroke-width="0.191"/>
    <path id="Path_395" data-name="Path 395" d="M156.543,688.219c-1.008-.7.193-1.824,2.667-2.5l154.244-42.485c2.475-.681,11.92-1.238,20.989-1.238s17.467.568,18.661,1.262l50.068,29.1c1.195.695,11.356,1.264,22.577,1.264h.415c11.223,0,24.863-.5,30.313-1.111l120.341-13.487c5.45-.611,16.216-1.111,23.925-1.111s15.149.568,16.534,1.262l113.571,56.853c1.385.695-4.983,1.592-14.152,1.995L479.73,728.425c-9.169.4-25.762.653-36.874.556l-145.921-1.288c-11.112-.1-22.267-.734-24.792-1.415l-94.706-25.554a27.51,27.51,0,0,1-6.418-2.5Z" transform="translate(139.051 91.826)" fill="none" stroke="#ff00a7" stroke-miterlimit="10" stroke-width="0.171"/>
    <path id="Path_396" data-name="Path 396" d="M165.211,684.816c-.947-.6.181-1.568,2.507-2.155l144.99-36.535c2.326-.587,11.205-1.066,19.729-1.066s16.419.488,17.544,1.086l47.063,25.022c1.123.6,10.673,1.088,21.222,1.088h.391c10.548,0,23.371-.431,28.493-.957l113.121-11.6c5.122-.526,15.242-.955,22.49-.955s14.24.488,15.542,1.084l106.756,48.895c1.3.6-4.684,1.367-13.3,1.715l-222.749,8.955c-8.619.345-24.216.562-34.661.476l-137.167-1.105c-10.445-.085-20.932-.633-23.3-1.219L184.851,695.57a27.214,27.214,0,0,1-6.033-2.153Z" transform="translate(147.607 94.848)" fill="none" stroke="#ff00a7" stroke-miterlimit="10" stroke-width="0.154"/>
    <path id="Path_397" data-name="Path 397" d="M173.36,681.89c-.891-.516.171-1.35,2.356-1.854l136.291-31.42c2.187-.5,10.532-.917,18.546-.917s15.432.421,16.49.935l44.239,21.519c1.056.514,10.034.935,19.949.935h.367c9.915,0,21.968-.371,26.784-.822l106.332-9.977c4.817-.451,14.329-.82,21.14-.82s13.386.419,14.611.931l100.35,42.05c1.224.514-4.4,1.177-12.505,1.475l-209.383,7.7c-8.1.3-22.764.484-32.581.411l-128.938-.951c-9.818-.073-19.675-.544-21.9-1.048l-83.681-18.9a27.231,27.231,0,0,1-5.672-1.852Z" transform="translate(155.649 97.446)" fill="none" stroke="#ff00a7" stroke-miterlimit="10" stroke-width="0.139"/>
    <path id="Path_398" data-name="Path 398" d="M181.018,679.373c-.836-.445.161-1.161,2.217-1.594l128.113-27.022c2.056-.435,9.9-.788,17.433-.788s14.508.361,15.5.8l41.584,18.506c.992.441,9.431.8,18.753.8h.345c9.32,0,20.65-.319,25.177-.707l99.953-8.579c4.527-.389,13.468-.707,19.872-.707s12.582.361,13.732.8l94.331,36.164c1.151.441-4.138,1.012-11.755,1.268l-196.82,6.623c-7.615.256-21.4.415-30.627.351l-121.2-.818c-9.23-.061-18.495-.468-20.59-.9l-78.662-16.252a27.339,27.339,0,0,1-5.331-1.594Z" transform="translate(163.209 99.681)" fill="none" stroke="#ff00a7" stroke-miterlimit="10" stroke-width="0.125"/>
  </g>
</svg>
